<?xml version="1.0" standalone="no"?>
<!DOCTYPE svg PUBLIC "-//W3C//DTD SVG 20010904//EN"
 "http://www.w3.org/TR/2001/REC-SVG-20010904/DTD/svg10.dtd">
<svg version="1.0" xmlns="http://www.w3.org/2000/svg"
 width="113.000000pt" height="113.000000pt" viewBox="0 0 113.000000 113.000000"
 preserveAspectRatio="xMidYMid meet">
<metadata>
Created by potrace 1.14, written by Peter Selinger 2001-2017
</metadata>
<g transform="translate(0.000000,113.000000) scale(0.100000,-0.100000)"
fill="#000000" stroke="none">
<path d="M398 933 c-27 -7 -27 -26 -2 -85 20 -47 22 -61 13 -87 -16 -46 6 -71
105 -122 47 -24 86 -48 86 -52 0 -5 -4 -6 -9 -2 -8 5 -76 14 -146 19 -105 9
-210 -79 -170 -141 19 -28 29 -29 106 -18 l46 7 16 -39 c20 -50 54 -67 102
-50 27 10 127 167 121 190 -3 13 0 17 9 13 33 -12 36 58 8 158 -31 114 -88
182 -168 201 -42 9 -97 14 -117 8z"/>
<path d="M791 854 c-37 -33 -69 -101 -69 -144 0 -8 -1 -38 -3 -66 -3 -61 5
-77 34 -68 21 6 21 6 6 -12 -34 -39 -9 -74 86 -123 80 -41 117 -48 138 -26 10
9 15 20 12 25 -3 4 2 13 10 20 8 7 15 22 15 34 0 28 -34 82 -61 96 -25 14
-101 14 -146 1 -18 -5 -33 -8 -33 -5 0 2 18 21 41 41 63 57 90 123 64 160 -8
11 -13 33 -13 50 2 63 -24 69 -81 17z"/>
<path d="M657 478 c-50 -61 -67 -97 -69 -151 -3 -92 109 -142 171 -76 32 34
31 74 -2 127 -27 43 -35 69 -36 130 -1 34 -15 27 -64 -30z"/>
<path d="M836 309 c1 -47 6 -66 22 -81 11 -11 25 -17 32 -13 8 5 5 12 -9 22
-28 19 -27 59 2 68 l22 8 -22 4 c-16 3 -23 11 -23 29 0 13 -6 24 -12 24 -9 0
-13 -18 -12 -61z"/>
<path d="M1090 290 c0 -47 4 -80 10 -80 6 0 10 33 10 80 0 47 -4 80 -10 80 -6
0 -10 -33 -10 -80z"/>
<path d="M48 313 c-33 -8 -40 -68 -10 -90 24 -19 82 -17 82 2 0 12 -4 14 -16
7 -19 -11 -54 -4 -54 9 0 5 6 9 13 10 6 1 20 2 29 3 10 0 18 5 18 11 0 5 -17
8 -38 7 -35 -2 -36 -2 -17 13 12 9 29 14 43 10 25 -6 31 10 6 19 -17 6 -29 6
-56 -1z"/>
<path d="M168 309 c-13 -7 -18 -23 -18 -54 0 -44 1 -45 33 -45 18 0 41 6 51
13 20 14 25 62 9 78 -15 15 -56 19 -75 8z m58 -35 c7 -28 -9 -46 -35 -41 -15
2 -23 31 -14 53 9 24 42 16 49 -12z"/>
<path d="M313 310 c-13 -5 -24 -15 -24 -22 -4 -33 2 -62 13 -70 17 -11 81 -6
85 8 2 6 -10 8 -31 6 -18 -2 -37 1 -40 7 -7 11 10 15 46 12 9 -1 19 3 23 9 4
6 -9 10 -36 10 -36 0 -40 2 -29 16 7 8 23 14 34 13 34 -2 42 1 26 11 -18 12
-38 12 -67 0z"/>
<path d="M448 313 c-30 -8 -46 -103 -17 -103 10 0 11 2 13 44 1 35 32 59 46
36 6 -8 9 -28 8 -45 -2 -21 1 -30 12 -30 22 0 21 64 -2 87 -18 18 -28 20 -60
11z"/>
<path d="M950 300 c-25 -25 -26 -52 -2 -73 23 -21 62 -22 62 -3 0 9 -7 12 -19
9 -28 -7 -46 30 -25 51 33 33 56 16 56 -40 0 -21 5 -34 13 -34 17 0 14 73 -4
94 -18 22 -57 20 -81 -4z"/>
</g>
</svg>
