<svg width="808" height="521" viewBox="0 0 808 521" fill="none" xmlns="http://www.w3.org/2000/svg">
<circle cx="405.5" cy="264.5" r="248.5" stroke="#C9D5F4" stroke-width="2" stroke-linecap="round" stroke-dasharray="8 8"/>
<circle cx="214.5" cy="105.5" r="7.5" fill="#54A8DA"/>
<circle cx="597.5" cy="105.5" r="7.5" fill="#54A8DA"/>
<circle cx="400.5" cy="16.5" r="7.5" fill="#54A8DA"/>
<circle cx="169.5" cy="339.5" r="7.5" fill="#54A8DA"/>
<circle cx="641.5" cy="339.5" r="7.5" fill="#54A8DA"/>
<circle cx="400.5" cy="513.5" r="7.5" fill="#54A8DA"/>
<path d="M606.759 82.0762C606.869 81.5349 606.519 81.0072 605.977 80.8975C605.436 80.7878 604.908 81.1377 604.799 81.679L606.759 82.0762ZM606.626 73.7831C606.486 74.3173 606.805 74.8639 607.339 75.004C607.874 75.1441 608.42 74.8246 608.56 74.2903L606.626 73.7831ZM610.868 66.5406C611.044 66.0171 610.763 65.45 610.239 65.274C609.716 65.0979 609.149 65.3796 608.973 65.903L610.868 66.5406ZM611.908 58.1957C611.69 58.7032 611.925 59.2913 612.432 59.5092C612.94 59.7272 613.528 59.4925 613.746 58.9851L611.908 58.1957ZM617.259 51.7564C617.525 51.2722 617.348 50.6643 616.863 50.3987C616.379 50.133 615.771 50.3101 615.506 50.7943L617.259 51.7564ZM619.856 43.8044C619.538 44.2557 619.646 44.8796 620.097 45.1979C620.548 45.5162 621.172 45.4084 621.49 44.9571L619.856 43.8044ZM626.494 38.7296C626.867 38.3224 626.839 37.6898 626.432 37.3167C626.025 36.9436 625.392 36.9713 625.019 37.3785L626.494 38.7296ZM630.995 31.6888C630.569 32.041 630.51 32.6714 630.862 33.0968C631.214 33.5222 631.845 33.5814 632.27 33.2292L630.995 31.6888ZM638.756 28.5817C639.226 28.2918 639.372 27.6757 639.082 27.2056C638.792 26.7355 638.176 26.5894 637.706 26.8793L638.756 28.5817ZM645.01 23.0216C644.506 23.2475 644.281 23.8392 644.506 24.3432C644.732 24.8471 645.324 25.0726 645.828 24.8467L645.01 23.0216ZM653.321 22.0102C653.848 21.8441 654.14 21.2825 653.974 20.7558C653.808 20.2291 653.246 19.9367 652.72 20.1027L653.321 22.0102ZM660.68 18.0272C660.14 18.1411 659.794 18.6716 659.908 19.212C660.022 19.7524 660.552 20.0981 661.093 19.9842L660.68 18.0272ZM669.035 18.6481C669.583 18.5774 669.97 18.076 669.899 17.5283C669.828 16.9805 669.327 16.5939 668.779 16.6646L669.035 18.6481ZM676.942 15.8807C676.391 15.9169 675.973 16.393 676.009 16.9441C676.046 17.4952 676.522 17.9126 677.073 17.8764L676.942 15.8807ZM685.157 17.5511C685.709 17.5417 686.149 17.0864 686.14 16.5342C686.131 15.982 685.675 15.542 685.123 15.5514L685.157 17.5511ZM693.3 15.5678C692.747 15.5572 692.291 15.9962 692.281 16.5484C692.27 17.1006 692.709 17.5568 693.261 17.5674L693.3 15.5678ZM701.372 17.8333C701.923 17.8579 702.391 17.4306 702.415 16.8789C702.44 16.3272 702.013 15.8599 701.461 15.8353L701.372 17.8333ZM709.605 16.2704C709.054 16.237 708.58 16.6568 708.546 17.2081C708.513 17.7593 708.933 18.2333 709.484 18.2668L709.605 16.2704ZM717.599 18.7929C718.15 18.8301 718.627 18.4136 718.664 17.8626C718.701 17.3116 718.285 16.8347 717.734 16.7975L717.599 18.7929ZM725.852 17.3443C725.3 17.3081 724.824 17.7255 724.788 18.2766C724.752 18.8277 725.169 19.3038 725.721 19.34L725.852 17.3443ZM733.853 19.8356C734.404 19.8658 734.876 19.4431 734.906 18.8917C734.936 18.3402 734.514 17.8687 733.962 17.8386L733.853 19.8356ZM742.067 18.204C741.515 18.1854 741.053 18.6177 741.034 19.1697C741.015 19.7217 741.448 20.1842 742 20.2029L742.067 18.204ZM750.173 20.3557C750.725 20.3566 751.173 19.9096 751.174 19.3574C751.175 18.8051 750.728 18.3566 750.176 18.3557L750.173 20.3557ZM758.273 18.1945C757.721 18.2188 757.293 18.6857 757.318 19.2374C757.342 19.7892 757.809 20.2168 758.361 20.1926L758.273 18.1945ZM766.543 19.5917C767.093 19.5335 767.491 19.0411 767.432 18.4918C767.374 17.9426 766.882 17.5446 766.332 17.6029L766.543 19.5917ZM774.305 16.442C773.762 16.5448 773.405 17.068 773.508 17.6106C773.611 18.1533 774.134 18.5098 774.677 18.407L774.305 16.442ZM782.679 16.4695C783.208 16.3105 783.508 15.7528 783.349 15.2239C783.19 14.695 782.632 14.3951 782.103 14.5541L782.679 16.4695ZM789.597 11.7772C789.093 12.0033 788.868 12.5951 789.094 13.099C789.32 13.6028 789.912 13.8279 790.416 13.6018L789.597 11.7772ZM797.693 9.65982C798.157 9.35996 798.29 8.7409 797.99 8.27711C797.69 7.81331 797.071 7.68041 796.607 7.98026L797.693 9.65982ZM802.91 3.13696C802.501 3.50822 802.47 4.14065 802.842 4.54953C803.213 4.95841 803.845 4.98889 804.254 4.61763L802.91 3.13696ZM605.985 86.1731C606.23 84.78 606.488 83.4145 606.759 82.0762L604.799 81.679C604.524 83.0348 604.263 84.4173 604.015 85.827L605.985 86.1731ZM608.56 74.2903C609.27 71.5828 610.041 69.0014 610.868 66.5406L608.973 65.903C608.13 68.409 607.347 71.0339 606.626 73.7831L608.56 74.2903ZM613.746 58.9851C614.845 56.4244 616.018 54.0178 617.259 51.7564L615.506 50.7943C614.232 53.1145 613.032 55.5789 611.908 58.1957L613.746 58.9851ZM621.49 44.9571C623.077 42.708 624.747 40.6366 626.494 38.7296L625.019 37.3785C623.213 39.3496 621.49 41.4874 619.856 43.8044L621.49 44.9571ZM632.27 33.2292C634.349 31.5079 636.513 29.9642 638.756 28.5817L637.706 26.8793C635.387 28.3093 633.147 29.9068 630.995 31.6888L632.27 33.2292ZM645.828 24.8467C648.255 23.7588 650.756 22.8189 653.321 22.0102L652.72 20.1027C650.086 20.933 647.513 21.8999 645.01 23.0216L645.828 24.8467ZM661.093 19.9842C663.69 19.4365 666.34 18.9963 669.035 18.6481L668.779 16.6646C666.037 17.0188 663.334 17.4675 660.68 18.0272L661.093 19.9842ZM677.073 17.8764C679.736 17.7014 682.433 17.5975 685.157 17.5511L685.123 15.5514C682.371 15.5983 679.641 15.7033 676.942 15.8807L677.073 17.8764ZM693.261 17.5674C695.949 17.619 698.654 17.7118 701.372 17.8333L701.461 15.8353C698.73 15.7132 696.007 15.6197 693.3 15.5678L693.261 17.5674ZM709.484 18.2668C712.186 18.4306 714.893 18.6101 717.599 18.7929L717.734 16.7975C715.027 16.6145 712.314 16.4347 709.605 16.2704L709.484 18.2668ZM725.721 19.34C728.441 19.5186 731.154 19.6881 733.853 19.8356L733.962 17.8386C731.274 17.6917 728.568 17.5227 725.852 17.3443L725.721 19.34ZM742 20.2029C744.748 20.2957 747.475 20.3514 750.173 20.3557L750.176 18.3557C747.503 18.3514 744.798 18.2962 742.067 18.204L742 20.2029ZM758.361 20.1926C761.131 20.0709 763.861 19.8762 766.543 19.5917L766.332 17.6029C763.696 17.8825 761.007 18.0744 758.273 18.1945L758.361 20.1926ZM774.677 18.407C777.411 17.8891 780.082 17.2501 782.679 16.4695L782.103 14.5541C779.58 15.3126 776.977 15.9357 774.305 16.442L774.677 18.407ZM790.416 13.6018C792.938 12.4698 795.368 11.1633 797.693 9.65982L796.607 7.98026C794.372 9.42547 792.032 10.6842 789.597 11.7772L790.416 13.6018ZM804.254 4.61763C805.275 3.69106 806.267 2.71359 807.231 1.68281L805.769 0.317195C804.843 1.30805 803.89 2.24714 802.91 3.13696L804.254 4.61763Z" fill="#C9D5F4"/>
<path d="M200.741 85.0762C200.631 84.5349 200.981 84.0072 201.523 83.8975C202.064 83.7878 202.592 84.1377 202.701 84.679L200.741 85.0762ZM200.874 76.7831C201.014 77.3173 200.695 77.8639 200.161 78.004C199.626 78.1441 199.08 77.8246 198.94 77.2903L200.874 76.7831ZM196.632 69.5406C196.456 69.0171 196.737 68.45 197.261 68.274C197.784 68.0979 198.351 68.3796 198.527 68.903L196.632 69.5406ZM195.592 61.1957C195.81 61.7032 195.575 62.2913 195.068 62.5092C194.56 62.7272 193.972 62.4925 193.754 61.9851L195.592 61.1957ZM190.241 54.7564C189.975 54.2722 190.152 53.6643 190.637 53.3987C191.121 53.133 191.729 53.3101 191.994 53.7943L190.241 54.7564ZM187.644 46.8044C187.962 47.2557 187.854 47.8796 187.403 48.1979C186.952 48.5162 186.328 48.4084 186.01 47.9571L187.644 46.8044ZM181.006 41.7296C180.633 41.3224 180.661 40.6898 181.068 40.3167C181.475 39.9436 182.108 39.9713 182.481 40.3785L181.006 41.7296ZM176.505 34.6888C176.931 35.041 176.99 35.6714 176.638 36.0968C176.286 36.5222 175.655 36.5814 175.23 36.2292L176.505 34.6888ZM168.744 31.5817C168.274 31.2918 168.128 30.6757 168.418 30.2056C168.708 29.7355 169.324 29.5894 169.794 29.8793L168.744 31.5817ZM162.49 26.0216C162.994 26.2475 163.219 26.8392 162.994 27.3432C162.768 27.8471 162.176 28.0726 161.672 27.8467L162.49 26.0216ZM154.179 25.0102C153.652 24.8441 153.36 24.2825 153.526 23.7558C153.692 23.2291 154.254 22.9367 154.78 23.1027L154.179 25.0102ZM146.82 21.0272C147.36 21.1411 147.706 21.6716 147.592 22.212C147.478 22.7524 146.948 23.0981 146.407 22.9842L146.82 21.0272ZM138.465 21.6481C137.917 21.5774 137.53 21.076 137.601 20.5283C137.672 19.9805 138.173 19.5939 138.721 19.6646L138.465 21.6481ZM130.558 18.8807C131.109 18.9169 131.527 19.393 131.491 19.9441C131.454 20.4952 130.978 20.9126 130.427 20.8764L130.558 18.8807ZM122.343 20.5511C121.791 20.5417 121.351 20.0864 121.36 19.5342C121.369 18.982 121.825 18.542 122.377 18.5514L122.343 20.5511ZM114.2 18.5678C114.753 18.5572 115.209 18.9962 115.219 19.5484C115.23 20.1006 114.791 20.5568 114.239 20.5674L114.2 18.5678ZM106.128 20.8333C105.577 20.8579 105.109 20.4306 105.085 19.8789C105.06 19.3272 105.487 18.8599 106.039 18.8353L106.128 20.8333ZM97.8951 19.2704C98.4464 19.237 98.9204 19.6568 98.9538 20.2081C98.9872 20.7593 98.5674 21.2333 98.0161 21.2668L97.8951 19.2704ZM89.9011 21.7929C89.35 21.8301 88.8732 21.4136 88.8359 20.8626C88.7987 20.3116 89.2152 19.8347 89.7662 19.7975L89.9011 21.7929ZM81.6484 20.3443C82.1995 20.3081 82.6756 20.7255 82.7118 21.2766C82.748 21.8277 82.3306 22.3038 81.7795 22.34L81.6484 20.3443ZM73.647 22.8356C73.0955 22.8658 72.624 22.4431 72.5939 21.8917C72.5638 21.3402 72.9864 20.8687 73.5378 20.8386L73.647 22.8356ZM65.4327 21.204C65.9847 21.1854 66.4472 21.6177 66.4659 22.1697C66.4845 22.7217 66.0522 23.1842 65.5002 23.2029L65.4327 21.204ZM57.3273 23.3557C56.775 23.3566 56.3266 22.9096 56.3257 22.3574C56.3248 21.8051 56.7718 21.3566 57.3241 21.3557L57.3273 23.3557ZM49.2272 21.1945C49.7789 21.2188 50.2066 21.6857 50.1823 22.2374C50.1581 22.7892 49.6912 23.2168 49.1394 23.1926L49.2272 21.1945ZM40.9566 22.5917C40.4074 22.5335 40.0094 22.0411 40.0677 21.4918C40.1259 20.9426 40.6183 20.5446 41.1676 20.6029L40.9566 22.5917ZM33.1954 19.442C33.7381 19.5448 34.0947 20.068 33.9919 20.6106C33.8891 21.1533 33.3659 21.5098 32.8232 21.407L33.1954 19.442ZM24.8212 19.4695C24.2923 19.3105 23.9924 18.7528 24.1514 18.2239C24.3104 17.695 24.8681 17.3951 25.397 17.5541L24.8212 19.4695ZM17.903 14.7772C18.4068 15.0033 18.6319 15.5951 18.4057 16.099C18.1796 16.6028 17.5878 16.8279 17.0839 16.6018L17.903 14.7772ZM9.80681 12.6598C9.34302 12.36 9.21011 11.7409 9.50996 11.2771C9.80981 10.8133 10.4289 10.6804 10.8927 10.9803L9.80681 12.6598ZM4.59019 6.13696C4.99908 6.50822 5.02957 7.14065 4.65829 7.54953C4.28703 7.95841 3.6546 7.98889 3.24573 7.61763L4.59019 6.13696ZM201.515 89.1731C201.27 87.78 201.012 86.4145 200.741 85.0762L202.701 84.679C202.976 86.0348 203.237 87.4173 203.485 88.827L201.515 89.1731ZM198.94 77.2903C198.23 74.5828 197.459 72.0014 196.632 69.5406L198.527 68.903C199.37 71.409 200.153 74.0339 200.874 76.7831L198.94 77.2903ZM193.754 61.9851C192.655 59.4244 191.482 57.0178 190.241 54.7564L191.994 53.7943C193.268 56.1145 194.468 58.5789 195.592 61.1957L193.754 61.9851ZM186.01 47.9571C184.423 45.708 182.753 43.6366 181.006 41.7296L182.481 40.3785C184.287 42.3496 186.01 44.4874 187.644 46.8044L186.01 47.9571ZM175.23 36.2292C173.151 34.5079 170.987 32.9642 168.744 31.5817L169.794 29.8793C172.113 31.3093 174.353 32.9068 176.505 34.6888L175.23 36.2292ZM161.672 27.8467C159.245 26.7588 156.744 25.8189 154.179 25.0102L154.78 23.1027C157.414 23.933 159.987 24.8999 162.49 26.0216L161.672 27.8467ZM146.407 22.9842C143.81 22.4365 141.16 21.9963 138.465 21.6481L138.721 19.6646C141.463 20.0188 144.166 20.4675 146.82 21.0272L146.407 22.9842ZM130.427 20.8764C127.764 20.7014 125.067 20.5975 122.343 20.5511L122.377 18.5514C125.129 18.5983 127.859 18.7033 130.558 18.8807L130.427 20.8764ZM114.239 20.5674C111.551 20.619 108.846 20.7118 106.128 20.8333L106.039 18.8353C108.77 18.7132 111.493 18.6197 114.2 18.5678L114.239 20.5674ZM98.0161 21.2668C95.3137 21.4306 92.607 21.6101 89.9011 21.7929L89.7662 19.7975C92.4734 19.6145 95.1856 19.4347 97.8951 19.2704L98.0161 21.2668ZM81.7795 22.34C79.0588 22.5186 76.3455 22.6881 73.647 22.8356L73.5378 20.8386C76.2263 20.6917 78.9317 20.5227 81.6484 20.3443L81.7795 22.34ZM65.5002 23.2029C62.7517 23.2957 60.0249 23.3514 57.3273 23.3557L57.3241 21.3557C59.9965 21.3514 62.7016 21.2962 65.4327 21.204L65.5002 23.2029ZM49.1394 23.1926C46.3694 23.0709 43.6388 22.8762 40.9566 22.5917L41.1676 20.6029C43.8036 20.8825 46.4927 21.0744 49.2272 21.1945L49.1394 23.1926ZM32.8232 21.407C30.089 20.8891 27.418 20.2501 24.8212 19.4695L25.397 17.5541C27.92 18.3126 30.5225 18.9357 33.1954 19.442L32.8232 21.407ZM17.0839 16.6018C14.5621 15.4698 12.1323 14.1633 9.80681 12.6598L10.8927 10.9803C13.128 12.4255 15.468 13.6842 17.903 14.7772L17.0839 16.6018ZM3.24573 7.61763C2.2253 6.69106 1.23276 5.71359 0.269394 4.68281L1.73061 3.31719C2.65665 4.30805 3.61024 5.24714 4.59019 6.13696L3.24573 7.61763Z" fill="#C9D5F4"/>
<path d="M39.7437 369.8C40.2948 369.763 40.7122 369.287 40.6759 368.736C40.6396 368.185 40.1634 367.768 39.6123 367.804L39.7437 369.8ZM47.7241 366.947C47.1778 367.028 46.8004 367.536 46.8814 368.083C46.9623 368.629 47.4707 369.006 48.017 368.925L47.7241 366.947ZM56.2444 367.313C56.7806 367.181 57.1079 366.639 56.9754 366.103C56.843 365.566 56.301 365.239 55.7648 365.372L56.2444 367.313ZM63.5696 363.004C63.0505 363.192 62.7827 363.766 62.9713 364.285C63.16 364.804 63.7337 365.072 64.2528 364.883L63.5696 363.004ZM71.9473 361.59C72.4421 361.345 72.6443 360.744 72.399 360.25C72.1536 359.755 71.5536 359.553 71.0588 359.798L71.9473 361.59ZM78.1631 355.784C77.697 356.08 77.5591 356.698 77.8553 357.164C78.1514 357.631 78.7694 357.768 79.2356 357.472L78.1631 355.784ZM86.0799 352.684C86.5196 352.35 86.6051 351.723 86.2709 351.283C85.9367 350.843 85.3093 350.758 84.8696 351.092L86.0799 352.684ZM91.2794 345.944C90.8554 346.297 90.7986 346.928 91.1525 347.352C91.5065 347.776 92.1371 347.833 92.5611 347.479L91.2794 345.944ZM98.8986 342.183C99.326 341.833 99.389 341.203 99.0392 340.776C98.6895 340.349 98.0594 340.286 97.632 340.635L98.8986 342.183ZM104.277 335.574C103.822 335.887 103.707 336.51 104.02 336.965C104.333 337.42 104.956 337.535 105.411 337.222L104.277 335.574ZM112.408 333.162C112.908 332.929 113.125 332.334 112.892 331.833C112.659 331.333 112.064 331.116 111.564 331.349L112.408 333.162ZM119.59 328.633C119.05 328.75 118.707 329.282 118.824 329.822C118.94 330.361 119.472 330.704 120.012 330.588L119.59 328.633ZM128.01 329.763C128.562 329.763 129.01 329.316 129.011 328.764C129.011 328.211 128.563 327.763 128.011 327.763L128.01 329.763ZM136.402 328.493C135.857 328.403 135.342 328.772 135.252 329.316C135.161 329.861 135.53 330.376 136.074 330.466L136.402 328.493ZM144.01 332.289C144.541 332.442 145.095 332.135 145.248 331.605C145.401 331.074 145.094 330.52 144.564 330.367L144.01 332.289ZM152.456 333.013C151.94 332.817 151.362 333.077 151.167 333.594C150.971 334.11 151.231 334.687 151.747 334.883L152.456 333.013ZM35.5294 369.999C36.9678 369.957 38.3721 369.89 39.7437 369.8L39.6123 367.804C38.2653 367.893 36.8852 367.959 35.4706 368L35.5294 369.999ZM48.017 368.925C50.9172 368.496 53.6538 367.953 56.2444 367.313L55.7648 365.372C53.2371 365.996 50.5628 366.527 47.7241 366.947L48.017 368.925ZM64.2528 364.883C66.9909 363.888 69.5456 362.781 71.9473 361.59L71.0588 359.798C68.7212 360.957 66.235 362.035 63.5696 363.004L64.2528 364.883ZM79.2356 357.472C81.6642 355.929 83.9304 354.318 86.0799 352.684L84.8696 351.092C82.7548 352.699 80.5351 354.277 78.1631 355.784L79.2356 357.472ZM92.5611 347.479C94.7429 345.657 96.8207 343.884 98.8986 342.183L97.632 340.635C95.546 342.342 93.4365 344.143 91.2794 345.944L92.5611 347.479ZM105.411 337.222C107.666 335.671 109.971 334.296 112.408 333.162L111.564 331.349C109.004 332.54 106.601 333.976 104.277 335.574L105.411 337.222ZM120.012 330.588C122.482 330.054 125.129 329.761 128.01 329.763L128.011 327.763C124.992 327.761 122.203 328.068 119.59 328.633L120.012 330.588ZM136.074 330.466C138.553 330.878 141.19 331.477 144.01 332.289L144.564 330.367C141.677 329.536 138.964 328.918 136.402 328.493L136.074 330.466ZM151.747 334.883C153.004 335.359 154.293 335.872 155.615 336.423L156.385 334.577C155.043 334.018 153.734 333.497 152.456 333.013L151.747 334.883Z" fill="#C9D5F4"/>
<path d="M755.5 377.5C730 383.5 704.2 322.1 661 336.5" stroke="#C9D5F4" stroke-width="2" stroke-linecap="round" stroke-dasharray="8 8"/>
</svg>
