<svg width="12" height="21" viewBox="0 0 12 21" fill="none" xmlns="http://www.w3.org/2000/svg">
<path d="M5.45199 20.548C5.75465 20.8507 6.24535 20.8507 6.54801 20.548L11.4801 15.6159C11.7827 15.3133 11.7827 14.8226 11.4801 14.5199C11.1774 14.2173 10.6867 14.2173 10.3841 14.5199L6 18.904L1.61594 14.5199C1.31328 14.2173 0.82258 14.2173 0.519923 14.5199C0.217267 14.8226 0.217267 15.3133 0.519923 15.6159L5.45199 20.548ZM5.225 3.38763e-08L5.225 1.66667L6.775 1.66667L6.775 -3.38763e-08L5.225 3.38763e-08ZM5.225 5L5.225 8.33333L6.775 8.33333L6.775 5L5.225 5ZM5.225 11.6667L5.225 15L6.775 15L6.775 11.6667L5.225 11.6667ZM5.225 18.3333L5.225 20L6.775 20L6.775 18.3333L5.225 18.3333Z" fill="#C9D5F4"/>
</svg>
