<svg width="30" height="26" viewBox="0 0 30 26" fill="none" xmlns="http://www.w3.org/2000/svg">
<path fill-rule="evenodd" clip-rule="evenodd" d="M8.65332 6.07983H5.40332H1.79475V14.8205H13.1533H16.1533H27.5V6L20.6533 6.07983H14.6533H8.65332ZM8.65332 4.33333V2.88889C8.65332 1.2934 9.99647 0 11.6533 0H17.6533C19.3102 0 20.6533 1.2934 20.6533 2.88889V4.33333H26.6533C28.3102 4.33333 29.5 5.40451 29.5 7V23C29.5 24.5955 28.3102 26 26.6533 26H2.65332C0.996466 26 0 24.5955 0 23V7C0 5.40451 0.996466 4.33333 2.65332 4.33333H8.65332ZM13.5 16.5798H1.79475V24H27.5V16.5798H16V18.7778H13.5V16.5798ZM18.4915 4.33333V2.07983H10.6533V4.33333H18.4915Z" fill="#37CB29"/>
</svg>
