<svg width="24" height="30" viewBox="0 0 24 30" fill="none" xmlns="http://www.w3.org/2000/svg">
<path d="M11.2558 15.6039C11.2558 15.6039 7.51495 19.2458 6.05566 23.4331V24.5723H17.9416V23.4331C16.0464 18.8099 12.7414 15.6039 12.7414 15.6039H11.2558Z" fill="#12CCB3"/>
<path d="M22.2271 25.7767V27.5739H23.9317V30H0.0683594V27.5739H1.77191V25.7767C1.77191 23.0318 6.69725 15.5354 6.92994 14.9953C6.70146 14.4541 1.77191 6.95867 1.77191 4.22541V2.43026H0.0683594V0H23.9317V2.43026H22.2271V4.22541C22.2271 6.97236 17.2976 14.4193 17.0375 15.0005C17.2976 15.5828 22.2271 23.0318 22.2271 25.7767ZM20.5225 4.22541V2.43026H3.47546V4.22541C3.47546 6.19744 8.69877 14.0119 8.69877 15.0005C8.69877 15.9892 3.47546 23.8026 3.47546 25.7767V27.5739H20.5215V25.7767C20.5215 23.8026 15.2561 15.9902 15.2561 15.0016C15.2561 14.0129 20.5225 6.19744 20.5225 4.22541Z" fill="#12CCB3"/>
</svg>
