<svg width="57" height="57" viewBox="0 0 57 57" fill="none" xmlns="http://www.w3.org/2000/svg">
<path d="M41.6519 17.8776C42.2377 17.2918 42.2377 16.3421 41.6519 15.7563C41.0661 15.1705 40.1164 15.1705 39.5306 15.7563L41.6519 17.8776ZM15.3475 39.9393C14.7618 40.5251 14.7618 41.4749 15.3475 42.0607C15.9333 42.6464 16.8831 42.6464 17.4689 42.0607L15.3475 39.9393ZM39.5306 15.7563L15.3475 39.9393L17.4689 42.0607L41.6519 17.8776L39.5306 15.7563Z" fill="#1D3752"/>
<path d="M39.1224 42.2437C39.7082 42.8295 40.6579 42.8295 41.2437 42.2437C41.8295 41.6579 41.8295 40.7082 41.2437 40.1224L39.1224 42.2437ZM17.0607 15.9393C16.4749 15.3536 15.5251 15.3536 14.9393 15.9393C14.3536 16.5251 14.3536 17.4749 14.9393 18.0607L17.0607 15.9393ZM41.2437 40.1224L17.0607 15.9393L14.9393 18.0607L39.1224 42.2437L41.2437 40.1224Z" fill="#1D3752"/>
</svg>