<svg data-micromodal-close width="8" height="8" viewBox="0 0 8 8" fill="none"
	xmlns="http://www.w3.org/2000/svg">
	<path data-micromodal-close
		d="M7.50008 0.499894C7.39069 0.390536 7.24234 0.329102 7.08766 0.329102C6.93298 0.329102 6.78464 0.390536 6.67524 0.499894L4.00008 3.17506L1.32491 0.499894C1.21552 0.390536 1.06717 0.329102 0.912493 0.329102C0.757814 0.329102 0.609468 0.390536 0.500077 0.499894C0.390719 0.609285 0.329285 0.757631 0.329285 0.91231C0.329285 1.06699 0.390719 1.21534 0.500077 1.32473L3.17524 3.99989L0.500077 6.67506C0.390719 6.78445 0.329285 6.9328 0.329285 7.08748C0.329285 7.24216 0.390719 7.3905 0.500077 7.4999C0.609468 7.60925 0.757814 7.67069 0.912493 7.67069C1.06717 7.67069 1.21552 7.60925 1.32491 7.4999L4.00008 4.82473L6.67524 7.4999C6.78464 7.60925 6.93298 7.67069 7.08766 7.67069C7.24234 7.67069 7.39069 7.60925 7.50008 7.4999C7.60944 7.3905 7.67087 7.24216 7.67087 7.08748C7.67087 6.9328 7.60944 6.78445 7.50008 6.67506L4.82491 3.99989L7.50008 1.32473C7.60944 1.21534 7.67087 1.06699 7.67087 0.91231C7.67087 0.757631 7.60944 0.609285 7.50008 0.499894Z"
		fill="#343235" />
</svg>