<svg width="37" height="37" viewBox="0 0 37 37" fill="none" xmlns="http://www.w3.org/2000/svg">
<path d="M1.04492 18.5C1.04492 8.87498 8.87498 1.04492 18.5 1.04492C28.125 1.04492 35.9551 8.87498 35.9551 18.5C35.9551 28.125 28.125 35.9551 18.5 35.9551C8.87498 35.9551 1.04492 28.125 1.04492 18.5ZM3.49336 18.5C3.49336 26.7752 10.2248 33.5066 18.5 33.5066C26.7752 33.5066 33.5066 26.7752 33.5066 18.5C33.5066 10.2248 26.7752 3.49336 18.5 3.49336C10.2248 3.49336 3.49336 10.2248 3.49336 18.5Z" fill="#A84D2D" stroke="#FECCBB" stroke-width="0.5"/>
<path d="M19.175 16.4363V16.2452V11.4396V11.0577L19.525 11.2104C20.3392 11.5657 20.8602 12.2126 21.0933 13.1278L23.7115 12.7868C23.4872 11.7238 23.0286 10.8773 22.36 10.2403L22.36 10.2402C21.6343 9.54848 20.6554 9.12459 19.3947 8.97052L19.175 8.94367V8.72236V7.7583H17.8901V8.72236V8.94919L17.6643 8.97118C16.3077 9.10337 15.2399 9.60782 14.434 10.4751L19.175 16.4363ZM19.175 16.4363L19.3594 16.4864C21.3119 17.0176 22.5866 17.6874 23.2515 18.4799C23.922 19.2791 24.2625 20.3026 24.2625 21.5856C24.2625 23.0123 23.8328 24.2022 22.9807 25.1711C22.1313 26.1369 20.9398 26.736 19.3892 26.9605L19.175 26.9915V27.2079V29.256M19.175 16.4363V29.256M19.175 29.256H17.8901V27.2657V27.0433L17.6692 27.0174C16.301 26.8569 15.2065 26.3503 14.3626 25.5063C13.568 24.7117 13.0362 23.6009 12.7773 22.1526L15.5003 21.8583C15.6461 22.4554 15.8898 22.9805 16.234 23.4349C16.614 23.9365 17.0483 24.3128 17.5327 24.5431L17.8901 24.713V24.3173V19.1647V18.9758L17.7083 18.9242C16.1348 18.4777 15.0095 17.8055 14.3009 16.9266C13.5891 16.0436 13.229 14.9734 13.229 13.6942C13.229 12.4077 13.635 11.3356 14.434 10.4751L19.175 29.256ZM17.5624 15.8903L17.8901 15.9974V15.6526V11.3962V11.1462H17.6401C16.5842 11.1462 15.8722 12.1551 15.7575 13.1767C15.6387 14.2352 16.1299 15.422 17.5624 15.8903ZM19.175 24.4835V24.791L19.4761 24.7282C20.8116 24.4498 21.5227 23.2546 21.553 22.0935C21.5835 20.9235 20.9246 19.7204 19.4725 19.4396L19.175 19.3821V19.6851V24.4835Z" fill="#A84D2D" stroke="#FECCBB" stroke-width="0.5"/>
</svg>
