<svg width="63" height="126" viewBox="0 0 63 126" fill="none" xmlns="http://www.w3.org/2000/svg">
<path d="M22.4395 121.581C22.2669 120.771 21.4702 120.254 20.6599 120.426C19.8497 120.599 19.3327 121.396 19.5053 122.206L22.4395 121.581ZM17.2618 114.28C17.5181 115.068 18.3646 115.499 19.1523 115.242C19.9401 114.986 20.3709 114.139 20.1145 113.352L17.2618 114.28ZM17.3944 105.377C17.1208 104.595 16.2651 104.183 15.4832 104.457C14.7012 104.73 14.2891 105.586 14.5627 106.368L17.3944 105.377ZM11.7899 98.43C12.0604 99.213 12.9144 99.6285 13.6974 99.358C14.4805 99.0876 14.896 98.2336 14.6255 97.4505L11.7899 98.43ZM11.9669 89.543C11.711 88.7551 10.8648 88.3238 10.0769 88.5798C9.28896 88.8357 8.8577 89.6819 9.11363 90.4698L11.9669 89.543ZM6.61986 82.4052C6.85186 83.2005 7.68464 83.6571 8.47991 83.4251C9.27519 83.1931 9.73182 82.3603 9.49981 81.565L6.61986 82.4052ZM7.32892 73.5308C7.13051 72.7265 6.31764 72.2353 5.51332 72.4337C4.70901 72.6321 4.21782 73.445 4.41623 74.2493L7.32892 73.5308ZM2.60732 65.9724C2.76045 66.7866 3.54459 67.3224 4.35874 67.1693C5.17289 67.0162 5.70876 66.232 5.55562 65.4179L2.60732 65.9724ZM4.31309 57.237C4.22045 56.4138 3.47798 55.8215 2.65475 55.9141C1.83152 56.0068 1.23926 56.7492 1.33191 57.5725L4.31309 57.237ZM0.774869 49.0571C0.786435 49.8854 1.46732 50.5476 2.29567 50.536C3.12401 50.5244 3.78614 49.8435 3.77458 49.0152L0.774869 49.0571ZM4.16826 40.853C4.26478 40.0302 3.67603 39.2849 2.85325 39.1884C2.03046 39.0919 1.28521 39.6806 1.18869 40.5034L4.16826 40.853ZM2.90224 32.0328C2.66558 32.8267 3.11732 33.6622 3.91122 33.8988C4.70512 34.1355 5.54056 33.6838 5.77722 32.8899L2.90224 32.0328ZM8.86317 25.4683C9.26385 24.7432 9.00087 23.8306 8.27578 23.4299C7.5507 23.0292 6.63809 23.2922 6.2374 24.0173L8.86317 25.4683ZM11.326 16.9379C10.766 17.5483 10.8069 18.4972 11.4174 19.0572C12.0278 19.6172 12.9767 19.5763 13.5367 18.9659L11.326 16.9379ZM19.5927 13.7134C20.2737 13.2415 20.4432 12.307 19.9714 11.6261C19.4995 10.9452 18.565 10.7756 17.8841 11.2475L19.5927 13.7134ZM25.4271 7.02104C24.6716 7.36086 24.3346 8.24881 24.6744 9.00433C25.0142 9.75986 25.9021 10.0969 26.6577 9.75704L25.4271 7.02104ZM34.2941 6.97689C35.0897 6.74618 35.5477 5.91414 35.317 5.11849C35.0863 4.32284 34.2542 3.86486 33.4586 4.09557L34.2941 6.97689ZM41.7745 2.181C40.9587 2.32532 40.4144 3.10362 40.5587 3.91938C40.703 4.73514 41.4813 5.27945 42.2971 5.13513L41.7745 2.181ZM50.4763 4.04784C51.3012 3.97113 51.9077 3.24026 51.831 2.41539C51.7542 1.59052 51.0234 0.984023 50.1985 1.06073L50.4763 4.04784ZM58.6482 0.560021C57.8201 0.58329 57.1676 1.27346 57.1909 2.10156C57.2142 2.92966 57.9043 3.58211 58.7324 3.55884L58.6482 0.560021ZM22.9991 126C22.9991 124.713 22.7886 123.22 22.4395 121.581L19.5053 122.206C19.8337 123.747 19.9991 125.011 19.9991 126L22.9991 126ZM20.1145 113.352C19.3145 110.893 18.388 108.217 17.3944 105.377L14.5627 106.368C15.5559 109.207 16.4728 111.855 17.2618 114.28L20.1145 113.352ZM14.6255 97.4505C13.7432 94.8961 12.847 92.2527 11.9669 89.543L9.11363 90.4698C10.0014 93.2028 10.9039 95.8648 11.7899 98.43L14.6255 97.4505ZM9.49981 81.565C8.7273 78.9169 7.99533 76.2323 7.32892 73.5308L4.41623 74.2493C5.0942 76.9977 5.83747 79.7233 6.61986 82.4052L9.49981 81.565ZM5.55562 65.4179C5.04037 62.6785 4.61782 59.9448 4.31309 57.237L1.33191 57.5725C1.64593 60.3629 2.08025 63.1702 2.60732 65.9724L5.55562 65.4179ZM3.77458 49.0152C3.73569 46.23 3.85752 43.5017 4.16826 40.853L1.18869 40.5034C0.860859 43.2979 0.734389 46.1581 0.774869 49.0571L3.77458 49.0152ZM5.77722 32.8899C6.55183 30.2914 7.56949 27.8093 8.86317 25.4683L6.2374 24.0173C4.8311 26.5622 3.73314 29.2455 2.90224 32.0328L5.77722 32.8899ZM13.5367 18.9659C15.2716 17.0748 17.2795 15.3162 19.5927 13.7134L17.8841 11.2475C15.3929 12.9737 13.2156 14.8781 11.326 16.9379L13.5367 18.9659ZM26.6577 9.75704C28.9796 8.71269 31.5195 7.78142 34.2941 6.97689L33.4586 4.09557C30.5597 4.93613 27.8869 5.91467 25.4271 7.02104L26.6577 9.75704ZM42.2971 5.13513C44.8621 4.68134 47.5858 4.31665 50.4763 4.04784L50.1985 1.06073C47.2322 1.3366 44.4265 1.71182 41.7745 2.181L42.2971 5.13513ZM58.7324 3.55884C60.1221 3.51979 61.5444 3.5 63 3.5V0.5C61.5172 0.5 60.0668 0.520161 58.6482 0.560021L58.7324 3.55884Z" fill="#C9D5F4"/>
</svg>
