<svg width="110" height="127" viewBox="0 0 110 127" fill="none" xmlns="http://www.w3.org/2000/svg">
<path d="M3.06567 123.227C3.0941 122.399 2.44596 121.705 1.61802 121.676C0.790083 121.648 0.0958631 122.296 0.0674386 123.124L3.06567 123.227ZM0.577571 115.383C0.498169 116.208 1.10228 116.941 1.92689 117.02C2.75151 117.1 3.48436 116.496 3.56376 115.671L0.577571 115.383ZM4.50599 108.124C4.6311 107.305 4.06865 106.539 3.24972 106.414C2.43079 106.289 1.66551 106.852 1.5404 107.67L4.50599 108.124ZM2.90778 100.055C2.74053 100.867 3.26269 101.66 4.07406 101.827C4.88543 101.994 5.67876 101.472 5.84601 100.661L2.90778 100.055ZM7.56814 93.2499C7.77562 92.4479 7.29363 91.6295 6.49161 91.422C5.68958 91.2146 4.87122 91.6965 4.66375 92.4986L7.56814 93.2499ZM6.78514 85.0551C6.53866 85.846 6.98001 86.687 7.77092 86.9335C8.56183 87.18 9.4028 86.7386 9.64928 85.9477L6.78514 85.0551ZM12.0881 78.7487C12.3732 77.9709 11.9737 77.1092 11.1959 76.8241C10.4181 76.5391 9.55642 76.9386 9.27135 77.7164L12.0881 78.7487ZM12.1194 70.5072C11.7958 71.2698 12.1515 72.1504 12.9141 72.4741C13.6767 72.7978 14.5573 72.442 14.881 71.6794L12.1194 70.5072ZM18.0261 64.7689C18.3888 64.0241 18.079 63.1263 17.3342 62.7636C16.5893 62.401 15.6915 62.7108 15.3289 63.4556L18.0261 64.7689ZM18.9093 56.5765C18.507 57.3007 18.7679 58.2139 19.4921 58.6162C20.2163 59.0185 21.1295 58.7576 21.5318 58.0334L18.9093 56.5765ZM25.4017 51.5059C25.8444 50.8056 25.6356 49.8791 24.9354 49.4365C24.2351 48.9938 23.3086 49.2026 22.8659 49.9028L25.4017 51.5059ZM27.2059 43.4684C26.7221 44.1409 26.8751 45.0783 27.5476 45.562C28.2201 46.0458 29.1574 45.8929 29.6412 45.2204L27.2059 43.4684ZM34.2573 39.2114C34.7828 38.571 34.6896 37.6258 34.0492 37.1003C33.4087 36.5748 32.4636 36.668 31.9381 37.3085L34.2573 39.2114ZM37.0664 31.4667C36.499 32.0703 36.5284 33.0196 37.132 33.587C37.7357 34.1544 38.685 34.125 39.2523 33.5214L37.0664 31.4667ZM44.6235 28.1966C45.2324 27.6349 45.2707 26.6859 44.7089 26.077C44.1472 25.4681 43.1983 25.4299 42.5893 25.9916L44.6235 28.1966ZM48.5031 20.9304C47.8538 21.4449 47.7444 22.3883 48.2589 23.0376C48.7734 23.6869 49.7168 23.7962 50.3661 23.2818L48.5031 20.9304ZM56.4676 18.823C57.1553 18.361 57.3382 17.429 56.8762 16.7414C56.4142 16.0538 55.4822 15.8708 54.7946 16.3328L56.4676 18.823ZM61.4274 12.2545C60.7047 12.6594 60.447 13.5735 60.8518 14.2963C61.2567 15.019 62.1708 15.2767 62.8936 14.8719L61.4274 12.2545ZM69.6216 11.4593C70.3753 11.1155 70.7075 10.2257 70.3637 9.47205C70.0198 8.71836 69.1301 8.38611 68.3764 8.72996L69.6216 11.4593ZM75.5996 5.79049C74.82 6.07065 74.4152 6.92978 74.6953 7.70939C74.9755 8.489 75.8346 8.89388 76.6142 8.61371L75.5996 5.79049ZM83.824 6.3533C84.6239 6.138 85.0979 5.31497 84.8826 4.51501C84.6673 3.71505 83.8443 3.24109 83.0443 3.45639L83.824 6.3533ZM90.63 1.73723C89.8155 1.88822 89.2776 2.67094 89.4286 3.4855C89.5795 4.30005 90.3623 4.83797 91.1768 4.68698L90.63 1.73723ZM98.646 3.59783C99.4697 3.5094 100.066 2.76998 99.9773 1.94628C99.8889 1.12259 99.1495 0.52654 98.3258 0.61497L98.646 3.59783ZM106.081 0.0676205C105.253 0.0963641 104.605 0.790834 104.634 1.61876C104.663 2.44669 105.357 3.09456 106.185 3.06581L106.081 0.0676205ZM3 127C3 125.763 3.02179 124.505 3.06567 123.227L0.0674386 123.124C0.0224127 124.435 0 125.728 0 127H3ZM3.56376 115.671C3.80134 113.204 4.11488 110.684 4.50599 108.124L1.5404 107.67C1.14107 110.284 0.820599 112.86 0.577571 115.383L3.56376 115.671ZM5.84601 100.661C6.3509 98.2116 6.92454 95.7379 7.56814 93.2499L4.66375 92.4986C4.00765 95.0348 3.42274 97.5571 2.90778 100.055L5.84601 100.661ZM9.64928 85.9477C10.3968 83.549 11.2094 81.1465 12.0881 78.7487L9.27135 77.7164C8.37544 80.161 7.54708 82.6102 6.78514 85.0551L9.64928 85.9477ZM14.881 71.6794C15.8654 69.3603 16.9134 67.0541 18.0261 64.7689L15.3289 63.4556C14.193 65.7883 13.1236 68.1416 12.1194 70.5072L14.881 71.6794ZM21.5318 58.0334C22.7577 55.8265 24.0474 53.6481 25.4017 51.5059L22.8659 49.9028C21.4805 52.0943 20.1619 54.3216 18.9093 56.5765L21.5318 58.0334ZM29.6412 45.2204C31.1151 43.1715 32.6536 41.1661 34.2573 39.2114L31.9381 37.3085C30.2928 39.3137 28.7158 41.3697 27.2059 43.4684L29.6412 45.2204ZM39.2523 33.5214C40.9771 31.6864 42.7672 29.909 44.6235 28.1966L42.5893 25.9916C40.6791 27.7537 38.8385 29.5813 37.0664 31.4667L39.2523 33.5214ZM50.3661 23.2818C52.334 21.7226 54.3675 20.234 56.4676 18.823L54.7946 16.3328C52.6278 17.7886 50.531 19.3236 48.5031 20.9304L50.3661 23.2818ZM62.8936 14.8719C65.0715 13.6519 67.3139 12.5122 69.6216 11.4593L68.3764 8.72996C65.9925 9.81757 63.6764 10.9947 61.4274 12.2545L62.8936 14.8719ZM76.6142 8.61371C78.9556 7.77228 81.3586 7.01683 83.824 6.3533L83.0443 3.45639C80.4994 4.14131 78.0181 4.92136 75.5996 5.79049L76.6142 8.61371ZM91.1768 4.68698C93.61 4.23595 96.0995 3.87122 98.646 3.59783L98.3258 0.61497C95.7039 0.896446 93.1388 1.27217 90.63 1.73723L91.1768 4.68698ZM106.185 3.06581C107.444 3.02212 108.715 3 110 3V0C108.681 0 107.375 0.0227119 106.081 0.0676205L106.185 3.06581Z" fill="#C9D5F4"/>
</svg>
