<svg width="281" height="94" viewBox="0 0 281 94" fill="none" xmlns="http://www.w3.org/2000/svg">
<path d="M0.261039 5.24973C0.323862 6.07577 1.04443 6.69448 1.87047 6.63166C2.69651 6.56883 3.31522 5.84826 3.2524 5.02222L0.261039 5.24973ZM4.05912 12.6723C3.94643 11.8516 3.18974 11.2776 2.36901 11.3903C1.54829 11.503 0.974315 12.2597 1.08701 13.0804L4.05912 12.6723ZM2.50153 21.1133C2.67851 21.9226 3.47805 22.4352 4.28735 22.2583C5.09665 22.0813 5.60925 21.2817 5.43227 20.4724L2.50153 21.1133ZM7.44594 27.9576C7.18967 27.1698 6.34329 26.739 5.5555 26.9952C4.76771 27.2515 4.33682 28.0979 4.59309 28.8857L7.44594 27.9576ZM7.54367 36.376C7.89728 37.1251 8.79126 37.4458 9.54043 37.0922C10.2896 36.7386 10.6103 35.8446 10.2566 35.0954L7.54367 36.376ZM14.0369 41.7327C13.5691 41.049 12.6356 40.874 11.9519 41.3419C11.2682 41.8097 11.0932 42.7432 11.561 43.4269L14.0369 41.7327ZM16.78 49.7203C17.3674 50.3045 18.3171 50.3018 18.9013 49.7144C19.4854 49.127 19.4828 48.1773 18.8954 47.5931L16.78 49.7203ZM24.7877 52.3877C24.0965 51.931 23.166 52.1211 22.7093 52.8123C22.2526 53.5035 22.4427 54.434 23.1339 54.8907L24.7877 52.3877ZM30.3411 58.7344C31.104 59.0572 31.9842 58.7004 32.307 57.9374C32.6297 57.1745 32.2729 56.2943 31.51 55.9715L30.3411 58.7344ZM38.7899 58.394C37.9869 58.1904 37.1708 58.6764 36.9673 59.4794C36.7637 60.2824 37.2497 61.0984 38.0527 61.302L38.7899 58.394ZM45.9997 62.8036C46.8211 62.9114 47.5743 62.3329 47.6822 61.5116C47.79 60.6902 47.2115 59.9369 46.3901 59.8291L45.9997 62.8036ZM54.1528 60.4826C53.3251 60.4479 52.626 61.0908 52.5914 61.9185C52.5567 62.7462 53.1996 63.4453 54.0273 63.48L54.1528 60.4826ZM62.063 63.5375C62.8911 63.5173 63.5462 62.8296 63.5261 62.0015C63.5059 61.1733 62.8182 60.5182 61.99 60.5384L62.063 63.5375ZM69.8434 60.1447C69.0172 60.2055 68.3967 60.9245 68.4574 61.7507C68.5181 62.5769 69.2371 63.1974 70.0633 63.1367L69.8434 60.1447ZM77.9701 62.4052C78.7935 62.3149 79.3879 61.5741 79.2975 60.7506C79.2072 59.9271 78.4664 59.3328 77.6429 59.4231L77.9701 62.4052ZM85.452 58.4574C84.6311 58.5692 84.0563 59.3252 84.1681 60.1461C84.2798 60.9669 85.0359 61.5417 85.8567 61.43L85.452 58.4574ZM93.7303 60.2804C94.549 60.1538 95.11 59.3875 94.9834 58.5688C94.8568 57.7501 94.0905 57.1891 93.2718 57.3157L93.7303 60.2804ZM101.1 56.0547C100.283 56.1907 99.7309 56.9635 99.8669 57.7806C100.003 58.5978 100.776 59.15 101.593 59.0139L101.1 56.0547ZM109.394 57.6882C110.21 57.5474 110.758 56.7714 110.617 55.955C110.476 55.1386 109.7 54.591 108.884 54.7319L109.394 57.6882ZM116.681 53.3799C115.865 53.5215 115.318 54.2979 115.459 55.1142C115.601 55.9304 116.377 56.4773 117.194 56.3357L116.681 53.3799ZM125.005 54.9922C125.822 54.8536 126.372 54.0791 126.233 53.2623C126.094 52.4456 125.32 51.8959 124.503 52.0345L125.005 54.9922ZM132.332 50.7344C131.514 50.8666 130.958 51.6368 131.09 52.4546C131.223 53.2724 131.993 53.8282 132.811 53.696L132.332 50.7344ZM140.614 52.4799C141.433 52.3576 141.998 51.5942 141.876 50.7748C141.753 49.9555 140.99 49.3905 140.171 49.5128L140.614 52.4799ZM148.041 48.3999C147.22 48.509 146.643 49.2631 146.752 50.0843C146.861 50.9055 147.615 51.4829 148.436 51.3738L148.041 48.3999ZM156.265 50.413C157.089 50.3208 157.681 49.5787 157.589 48.7554C157.497 47.9321 156.755 47.3394 155.932 47.4316L156.265 50.413ZM163.853 46.6418C163.028 46.7134 162.417 47.4405 162.488 48.2658C162.56 49.0911 163.287 49.7022 164.112 49.6306L163.853 46.6418ZM171.97 49.0637C172.797 49.0167 173.429 48.3081 173.382 47.481C173.335 46.654 172.627 46.0215 171.8 46.0685L171.97 49.0637ZM179.758 45.7519C178.929 45.7701 178.273 46.4562 178.291 47.2844C178.309 48.1127 178.995 48.7693 179.823 48.7512L179.758 45.7519ZM187.687 48.7336C188.516 48.7489 189.199 48.0898 189.215 47.2615C189.23 46.4332 188.571 45.7494 187.742 45.7341L187.687 48.7336ZM195.728 46.0617C194.901 46.0082 194.187 46.635 194.134 47.4617C194.081 48.2884 194.707 49.002 195.534 49.0554L195.728 46.0617ZM203.336 49.7611C204.159 49.8577 204.904 49.269 205 48.4462C205.097 47.6234 204.508 46.8781 203.686 46.7815L203.336 49.7611ZM211.604 47.9434C210.788 47.7987 210.01 48.3427 209.865 49.1584C209.721 49.9741 210.265 50.7526 211.08 50.8973L211.604 47.9434ZM218.734 52.509C219.538 52.7063 220.351 52.2141 220.548 51.4096C220.745 50.605 220.253 49.7928 219.449 49.5954L218.734 52.509ZM227.163 51.7766C226.374 51.5228 225.529 51.9562 225.275 52.7448C225.021 53.5333 225.455 54.3784 226.243 54.6323L227.163 51.7766ZM233.579 57.3028C234.346 57.6159 235.221 57.248 235.535 56.481C235.848 55.714 235.48 54.8384 234.713 54.5253L233.579 57.3028ZM242.019 57.8512C241.279 57.478 240.377 57.7751 240.004 58.5147C239.631 59.2543 239.928 60.1564 240.667 60.5296L242.019 57.8512ZM247.458 64.3107C248.164 64.743 249.088 64.5206 249.52 63.8139C249.952 63.1072 249.73 62.1839 249.023 61.7516L247.458 64.3107ZM255.713 66.2318C255.044 65.743 254.105 65.8889 253.616 66.5577C253.128 67.2266 253.274 68.165 253.942 68.6539L255.713 66.2318ZM260.046 73.5046C260.674 74.0455 261.621 73.9752 262.162 73.3477C262.703 72.7203 262.632 71.7731 262.005 71.2322L260.046 73.5046ZM267.846 76.6723C267.261 76.0851 266.311 76.0829 265.724 76.6673C265.137 77.2517 265.135 78.2014 265.719 78.7886L267.846 76.6723ZM271.054 84.559C271.595 85.1871 272.542 85.2584 273.17 84.7182C273.798 84.178 273.869 83.2309 273.329 82.6029L271.054 84.559ZM278.315 88.8118C277.818 88.1492 276.877 88.0151 276.215 88.5124C275.552 89.0096 275.418 89.9498 275.915 90.6124L278.315 88.8118ZM0.00176919 1.07283C0.0708914 2.49477 0.15739 3.88689 0.261039 5.24973L3.2524 5.02222C3.15089 3.68756 3.06607 2.32274 2.99823 0.927169L0.00176919 1.07283ZM1.08701 13.0804C1.47402 15.8989 1.94633 18.5745 2.50153 21.1133L5.43227 20.4724C4.89515 18.0163 4.43622 15.4186 4.05912 12.6723L1.08701 13.0804ZM4.59309 28.8857C5.46388 31.5625 6.44868 34.0561 7.54367 36.376L10.2566 35.0954C9.21949 32.8981 8.28046 30.523 7.44594 27.9576L4.59309 28.8857ZM11.561 43.4269C13.1544 45.7555 14.8969 47.8477 16.78 49.7203L18.8954 47.5931C17.1493 45.8568 15.5269 43.9103 14.0369 41.7327L11.561 43.4269ZM23.1339 54.8907C25.4044 56.3909 27.8112 57.6641 30.3411 58.7344L31.51 55.9715C29.1383 54.9681 26.8952 53.7802 24.7877 52.3877L23.1339 54.8907ZM38.0527 61.302C40.6099 61.9503 43.2622 62.4442 45.9997 62.8036L46.3901 59.8291C43.756 59.4833 41.2205 59.0101 38.7899 58.394L38.0527 61.302ZM54.0273 63.48C56.643 63.5895 59.3239 63.6041 62.063 63.5375L61.99 60.5384C59.3087 60.6035 56.6945 60.589 54.1528 60.4826L54.0273 63.48ZM70.0633 63.1367C72.6555 62.9462 75.2928 62.699 77.9701 62.4052L77.6429 59.4231C74.9962 59.7135 72.3951 59.9572 69.8434 60.1447L70.0633 63.1367ZM85.8567 61.43C88.45 61.0769 91.0759 60.6909 93.7303 60.2804L93.2718 57.3157C90.6319 57.7239 88.0242 58.1072 85.452 58.4574L85.8567 61.43ZM101.593 59.0139C104.171 58.5847 106.773 58.1403 109.394 57.6882L108.884 54.7319C106.266 55.1835 103.671 55.6267 101.1 56.0547L101.593 59.0139ZM117.194 56.3357C119.783 55.8866 122.387 55.4366 125.005 54.9922L124.503 52.0345C121.88 52.4798 119.271 52.9305 116.681 53.3799L117.194 56.3357ZM132.811 53.696C135.403 53.2768 138.005 52.8694 140.614 52.4799L140.171 49.5128C137.548 49.9044 134.934 50.3137 132.332 50.7344L132.811 53.696ZM148.436 51.3738C151.043 51.0277 153.654 50.7054 156.265 50.413L155.932 47.4316C153.298 47.7265 150.667 48.0514 148.041 48.3999L148.436 51.3738ZM164.112 49.6306C166.735 49.4032 169.355 49.2122 171.97 49.0637L171.8 46.0685C169.153 46.2188 166.503 46.4121 163.853 46.6418L164.112 49.6306ZM179.823 48.7512C182.454 48.6935 185.076 48.6855 187.687 48.7336L187.742 45.7341C185.089 45.6853 182.426 45.6934 179.758 45.7519L179.823 48.7512ZM195.534 49.0554C198.15 49.2246 200.752 49.4577 203.336 49.7611L203.686 46.7815C201.047 46.4717 198.393 46.2341 195.728 46.0617L195.534 49.0554ZM211.08 50.8973C213.654 51.3538 216.206 51.8888 218.734 52.509L219.449 49.5954C216.855 48.959 214.239 48.4107 211.604 47.9434L211.08 50.8973ZM226.243 54.6323C228.717 55.4286 231.163 56.3165 233.579 57.3028L234.713 54.5253C232.224 53.5094 229.706 52.5955 227.163 51.7766L226.243 54.6323ZM240.667 60.5296C242.962 61.6878 245.227 62.9461 247.458 64.3107L249.023 61.7516C246.722 60.3437 244.386 59.0457 242.019 57.8512L240.667 60.5296ZM253.942 68.6539C256.011 70.1654 258.046 71.7805 260.046 73.5046L262.005 71.2322C259.944 69.4558 257.846 67.7908 255.713 66.2318L253.942 68.6539ZM265.719 78.7886C267.531 80.6092 269.31 82.531 271.054 84.559L273.329 82.6029C271.538 80.5206 269.71 78.5452 267.846 76.6723L265.719 78.7886ZM275.915 90.6124C276.709 91.6703 277.495 92.7531 278.272 93.8612L280.728 92.1388C279.933 91.0046 279.128 89.8958 278.315 88.8118L275.915 90.6124Z" fill="#C9D5F4"/>
</svg>
