<svg width="88" height="117" viewBox="0 0 88 117" fill="none" xmlns="http://www.w3.org/2000/svg">
<path d="M8.40229 112.933C8.36412 112.105 7.66231 111.465 6.83477 111.503C6.00722 111.542 5.36731 112.243 5.40548 113.071L8.40229 112.933ZM4.78949 105.19C4.87496 106.014 5.61224 106.612 6.43625 106.527C7.26025 106.441 7.85895 105.704 7.77348 104.88L4.78949 105.19ZM6.82482 96.9014C6.71819 96.0799 5.96576 95.5003 5.14422 95.607C4.32269 95.7136 3.74314 96.466 3.84977 97.2876L6.82482 96.9014ZM2.79367 89.3572C2.90304 90.1784 3.65741 90.7554 4.47858 90.6461C5.29976 90.5367 5.87678 89.7823 5.7674 88.9612L2.79367 89.3572ZM4.7617 81.0412C4.66479 80.2184 3.91928 79.63 3.09654 79.7269C2.2738 79.8238 1.68539 80.5693 1.78229 81.3921L4.7617 81.0412ZM0.960181 73.3841C1.03 74.2096 1.75579 74.8222 2.58127 74.7523C3.40675 74.6825 4.01933 73.9567 3.94951 73.1313L0.960181 73.3841ZM3.47325 65.2208C3.44637 64.3928 2.75335 63.7434 1.92536 63.7703C1.09737 63.7972 0.447946 64.4902 0.474836 65.3182L3.47325 65.2208ZM0.49558 57.2127C0.46116 58.0404 1.10425 58.7393 1.93196 58.7738C2.75967 58.8082 3.45857 58.1651 3.49299 57.3374L0.49558 57.2127ZM4.19454 49.5165C4.31202 48.6964 3.74248 47.9364 2.92242 47.8189C2.10237 47.7014 1.34234 48.271 1.22486 49.091L4.19454 49.5165ZM2.89518 41.0723C2.67132 41.8699 3.13643 42.698 3.93403 42.9218C4.73164 43.1457 5.55971 42.6806 5.78357 41.883L2.89518 41.0723ZM8.45478 34.6133C8.8042 33.8622 8.47854 32.97 7.72741 32.6206C6.97628 32.2712 6.08411 32.5968 5.73469 33.3479L8.45478 34.6133ZM9.88433 26.1969C9.40424 26.872 9.56235 27.8085 10.2375 28.2886C10.9126 28.7687 11.8491 28.6106 12.3292 27.9354L9.88433 26.1969ZM17.3486 22.1037C17.9438 21.5274 17.9591 20.5778 17.3828 19.9826C16.8066 19.3875 15.857 19.3721 15.2618 19.9484L17.3486 22.1037ZM21.6458 14.74C20.9637 15.2101 20.7918 16.1442 21.2619 16.8263C21.732 17.5084 22.666 17.6803 23.3482 17.2102L21.6458 14.74ZM30.0424 13.2709C30.7827 12.8992 31.0816 11.9977 30.71 11.2573C30.3383 10.517 29.4368 10.2181 28.6965 10.5897L30.0424 13.2709ZM36.223 7.34297C35.4458 7.6297 35.0482 8.49221 35.3349 9.26943C35.6216 10.0467 36.4841 10.4443 37.2614 10.1575L36.223 7.34297ZM44.7558 7.77823C45.5554 7.56142 46.0278 6.73749 45.811 5.93794C45.5941 5.13839 44.7702 4.66598 43.9707 4.88279L44.7558 7.77823ZM51.8491 3.05399C51.0362 3.2136 50.5066 4.00199 50.6662 4.81489C50.8258 5.6278 51.6142 6.15739 52.4271 5.99778L51.8491 3.05399ZM60.2382 4.70481C61.059 4.59237 61.6332 3.83586 61.5208 3.01509C61.4083 2.19433 60.6518 1.62013 59.831 1.73258L60.2382 4.70481ZM67.8842 0.830427C67.059 0.903595 66.4494 1.63186 66.5225 2.45705C66.5957 3.28224 67.324 3.89187 68.1491 3.8187L67.8842 0.830427ZM76.023 3.28154C76.8504 3.24103 77.4883 2.53742 77.4478 1.70998C77.4073 0.882545 76.7037 0.244619 75.8763 0.285134L76.023 3.28154ZM83.8745 0.0313421C83.0462 0.0440907 82.385 0.725919 82.3978 1.55425C82.4105 2.38258 83.0924 3.04374 83.9207 3.03099L83.8745 0.0313421ZM8.50086 117C8.50086 115.671 8.46599 114.314 8.40229 112.933L5.40548 113.071C5.46734 114.412 5.50086 115.723 5.50086 117H8.50086ZM7.77348 104.88C7.50343 102.277 7.17635 99.6098 6.82482 96.9014L3.84977 97.2876C4.19975 99.984 4.5232 102.622 4.78949 105.19L7.77348 104.88ZM5.7674 88.9612C5.41829 86.3402 5.07445 83.6965 4.7617 81.0412L1.78229 81.3921C2.09771 84.0701 2.44391 86.7314 2.79367 89.3572L5.7674 88.9612ZM3.94951 73.1313C3.72558 70.4838 3.5584 67.8426 3.47325 65.2208L0.474836 65.3182C0.561973 68.0013 0.732756 70.6953 0.960181 73.3841L3.94951 73.1313ZM3.49299 57.3374C3.60324 54.6863 3.82809 52.0745 4.19454 49.5165L1.22486 49.091C0.842275 51.7617 0.609434 54.4748 0.49558 57.2127L3.49299 57.3374ZM5.78357 41.883C6.48588 39.3807 7.36663 36.9525 8.45478 34.6133L5.73469 33.3479C4.57258 35.8461 3.63743 38.4277 2.89518 41.0723L5.78357 41.883ZM12.3292 27.9354C13.7775 25.8987 15.4415 23.9501 17.3486 22.1037L15.2618 19.9484C13.2225 21.9229 11.4387 24.011 9.88433 26.1969L12.3292 27.9354ZM23.3482 17.2102C25.3763 15.8125 27.6017 14.496 30.0424 13.2709L28.6965 10.5897C26.139 11.8735 23.7938 13.2597 21.6458 14.74L23.3482 17.2102ZM37.2614 10.1575C39.6003 9.29467 42.0952 8.49967 44.7558 7.77823L43.9707 4.88279C41.2302 5.62591 38.6504 6.44746 36.223 7.34297L37.2614 10.1575ZM52.4271 5.99778C54.9079 5.51067 57.5098 5.07861 60.2382 4.70481L59.831 1.73258C57.0488 2.11375 54.3898 2.55511 51.8491 3.05399L52.4271 5.99778ZM68.1491 3.8187C70.6774 3.59453 73.3009 3.41483 76.023 3.28154L75.8763 0.285134C73.1168 0.420251 70.4538 0.602588 67.8842 0.830427L68.1491 3.8187ZM83.9207 3.03099C85.2589 3.01039 86.6186 3 88 3V0C86.6035 0 85.2285 0.010504 83.8745 0.0313421L83.9207 3.03099Z" fill="#C9D5F4"/>
</svg>
