<svg width="280" height="88" viewBox="0 0 280 88" fill="none" xmlns="http://www.w3.org/2000/svg">
<path d="M0.555704 4.12932C0.578416 4.95744 1.26815 5.61035 2.09626 5.58763C2.92438 5.56492 3.57729 4.87519 3.55458 4.04707L0.555704 4.12932ZM3.9853 11.672C3.91299 10.8467 3.18536 10.2363 2.3601 10.3086C1.53483 10.3809 0.924439 11.1086 0.996749 11.9338L3.9853 11.672ZM1.99035 19.9193C2.1246 20.7368 2.89613 21.2906 3.71361 21.1564C4.53109 21.0221 5.08495 20.2506 4.95069 19.4331L1.99035 19.9193ZM6.52085 26.917C6.31261 26.1152 5.49379 25.634 4.69196 25.8423C3.89014 26.0505 3.40894 26.8693 3.61718 27.6711L6.52085 26.917ZM6.01642 35.2088C6.31284 35.9824 7.18025 36.3692 7.95383 36.0728C8.72741 35.7764 9.11423 34.909 8.8178 34.1354L6.01642 35.2088ZM12.0132 41.0596C11.6139 40.3338 10.7018 40.0691 9.97594 40.4684C9.2501 40.8677 8.98539 41.7798 9.38471 42.5057L12.0132 41.0596ZM13.8178 49.2565C14.3272 49.9098 15.2698 50.0265 15.9231 49.5171C16.5764 49.0077 16.6931 48.0652 16.1838 47.4119L13.8178 49.2565ZM21.3207 52.9555C20.7075 52.3984 19.7588 52.4439 19.2018 53.0571C18.6447 53.6703 18.6902 54.6189 19.3034 55.176L21.3207 52.9555ZM25.7066 60.072C26.4041 60.519 27.3319 60.316 27.7789 59.6185C28.2259 58.9211 28.0229 57.9933 27.3255 57.5463L25.7066 60.072ZM34.0083 61.1383C33.252 60.8003 32.3648 61.1393 32.0268 61.8957C31.6887 62.652 32.0278 63.5391 32.7841 63.8772L34.0083 61.1383ZM40.2842 66.6637C41.0768 66.9048 41.9147 66.4577 42.1558 65.6651C42.3969 64.8726 41.9498 64.0346 41.1573 63.7935L40.2842 66.6637ZM48.5988 65.6387C47.7861 65.4784 46.9972 66.0073 46.8369 66.8201C46.6766 67.6329 47.2055 68.4217 48.0183 68.582L48.5988 65.6387ZM55.8716 69.7963C56.6946 69.8915 57.4389 69.3016 57.5341 68.4787C57.6293 67.6557 57.0394 66.9114 56.2164 66.8162L55.8716 69.7963ZM63.9395 67.4553C63.1122 67.4118 62.4063 68.0473 62.3629 68.8745C62.3194 69.7018 62.9548 70.4077 63.7821 70.4512L63.9395 67.4553ZM71.7167 70.6639C72.5451 70.6664 73.2188 69.9969 73.2213 69.1685C73.2239 68.3401 72.5544 67.6665 71.7259 67.6639L71.7167 70.6639ZM79.4785 67.5321C78.6506 67.5616 78.0033 68.2565 78.0327 69.0844C78.0621 69.9124 78.7571 70.5597 79.585 70.5303L79.4785 67.5321ZM87.4344 70.1275C88.261 70.0731 88.887 69.3588 88.8325 68.5322C88.7781 67.7055 88.0638 67.0796 87.2372 67.134L87.4344 70.1275ZM95.0213 66.525C94.1962 66.5989 93.5872 67.3277 93.6611 68.1529C93.7351 68.978 94.4639 69.587 95.289 69.5131L95.0213 66.525ZM103.141 68.7352C103.965 68.6465 104.561 67.9069 104.472 67.0832C104.383 66.2596 103.644 65.6637 102.82 65.7524L103.141 68.7352ZM110.554 64.8658C109.732 64.9652 109.146 65.7125 109.245 66.5349C109.344 67.3574 110.092 67.9435 110.914 67.8441L110.554 64.8658ZM118.701 66.8656C119.522 66.7589 120.102 66.0065 119.995 65.185C119.888 64.3634 119.136 63.7839 118.314 63.8906L118.701 66.8656ZM126.088 62.8591C125.267 62.9699 124.691 63.7252 124.802 64.5462C124.912 65.3672 125.668 65.9429 126.489 65.8321L126.088 62.8591ZM134.243 64.7774C135.064 64.6653 135.639 63.9091 135.527 63.0883C135.415 62.2675 134.659 61.6929 133.838 61.8049L134.243 64.7774ZM141.605 60.7498C140.784 60.8603 140.208 61.6155 140.318 62.4365C140.429 63.2575 141.184 63.8335 142.005 63.723L141.605 60.7498ZM149.766 62.6964C150.587 62.5901 151.167 61.8379 151.061 61.0163C150.954 60.1948 150.202 59.6149 149.381 59.7212L149.766 62.6964ZM157.166 58.7452C156.343 58.8446 155.757 59.5918 155.857 60.4143C155.956 61.2367 156.703 61.8229 157.526 61.7236L157.166 58.7452ZM165.295 60.8301C166.119 60.7406 166.714 60.0004 166.625 59.1769C166.535 58.3533 165.795 57.7582 164.971 57.8476L165.295 60.8301ZM172.779 57.0587C171.954 57.1353 171.347 57.866 171.424 58.6909C171.5 59.5158 172.231 60.1224 173.056 60.0458L172.779 57.0587ZM180.84 59.3978C181.666 59.3375 182.287 58.6188 182.226 57.7926C182.166 56.9663 181.447 56.3454 180.621 56.4057L180.84 59.3978ZM188.486 55.9243C187.658 55.9646 187.02 56.668 187.06 57.4954C187.1 58.3229 187.804 58.961 188.631 58.9207L188.486 55.9243ZM196.402 58.6526C197.23 58.6365 197.889 57.952 197.873 57.1237C197.857 56.2954 197.172 55.637 196.344 55.6531L196.402 58.6526ZM204.227 55.6339C203.399 55.621 202.717 56.282 202.704 57.1103C202.691 57.9386 203.352 58.6206 204.18 58.6335L204.227 55.6339ZM211.963 58.913C212.79 58.9605 213.499 58.3286 213.546 57.5016C213.594 56.6745 212.962 55.9655 212.135 55.9179L211.963 58.913ZM220.01 56.561C219.187 56.4726 218.447 57.0687 218.359 57.8924C218.27 58.7161 218.867 59.4555 219.69 59.5438L220.01 56.561ZM227.339 60.5843C228.156 60.7205 228.929 60.1684 229.065 59.3512C229.202 58.5341 228.649 57.7612 227.832 57.6251L227.339 60.5843ZM235.62 59.1917C234.814 58.9998 234.006 59.4977 233.814 60.3036C233.622 61.1095 234.12 61.9183 234.926 62.1101L235.62 59.1917ZM242.36 64.1877C243.148 64.443 243.994 64.0111 244.249 63.223C244.505 62.4348 244.073 61.589 243.285 61.3337L242.36 64.1877ZM250.738 64.1202C249.976 63.7945 249.095 64.1479 248.769 64.9096C248.443 65.6713 248.797 66.5529 249.559 66.8786L250.738 64.1202ZM256.446 70.2392C257.171 70.6403 258.084 70.3779 258.485 69.653C258.886 68.9282 258.624 68.0154 257.899 67.6143L256.446 70.2392ZM264.673 71.8591C263.997 71.3811 263.06 71.542 262.582 72.2186C262.104 72.8951 262.265 73.8311 262.942 74.3092L264.673 71.8591ZM268.928 79.0701C269.546 79.6219 270.494 79.5683 271.046 78.9504C271.598 78.3325 271.544 77.3843 270.926 76.8325L268.928 79.0701ZM276.557 82.4658C276.005 81.8479 275.057 81.7944 274.439 82.3462C273.821 82.8981 273.768 83.8463 274.32 84.4642L276.557 82.4658ZM0.5 0C0.5 1.40212 0.518654 2.77842 0.555704 4.12932L3.55458 4.04707C3.5183 2.7244 3.5 1.37553 3.5 0L0.5 0ZM0.996749 11.9338C1.24042 14.7148 1.57252 17.3751 1.99035 19.9193L4.95069 19.4331C4.54584 16.968 4.22281 14.3827 3.9853 11.672L0.996749 11.9338ZM3.61718 27.6711C4.30756 30.3295 5.10865 32.8398 6.01642 35.2088L8.8178 34.1354C7.95241 31.877 7.18482 29.4736 6.52085 26.917L3.61718 27.6711ZM9.38471 42.5057C10.7242 44.9404 12.2044 47.187 13.8178 49.2565L16.1838 47.4119C14.6711 45.4717 13.2781 43.3588 12.0132 41.0596L9.38471 42.5057ZM19.3034 55.176C21.305 56.9944 23.4433 58.6213 25.7066 60.072L27.3255 57.5463C25.198 56.1826 23.1937 54.6571 21.3207 52.9555L19.3034 55.176ZM32.7841 63.8772C35.1844 64.95 37.6879 65.8739 40.2842 66.6637L41.1573 63.7935C38.6703 63.037 36.285 62.1559 34.0083 61.1383L32.7841 63.8772ZM48.0183 68.582C50.5664 69.0846 53.1867 69.4857 55.8716 69.7963L56.2164 66.8162C53.6026 66.5138 51.0614 66.1245 48.5988 65.6387L48.0183 68.582ZM63.7821 70.4512C66.3779 70.5875 69.0247 70.6556 71.7167 70.6639L71.7259 67.6639C69.0782 67.6558 66.4811 67.5888 63.9395 67.4553L63.7821 70.4512ZM79.585 70.5303C82.1675 70.4385 84.7854 70.302 87.4344 70.1275L87.2372 67.134C84.6151 67.3067 82.0275 67.4416 79.4785 67.5321L79.585 70.5303ZM95.289 69.5131C97.8827 69.2807 100.501 69.0195 103.141 68.7352L102.82 65.7524C100.196 66.0351 97.5948 66.2945 95.0213 66.525L95.289 69.5131ZM110.914 67.8441C113.494 67.5323 116.091 67.2044 118.701 66.8656L118.314 63.8906C115.712 64.2285 113.124 64.5553 110.554 64.8658L110.914 67.8441ZM126.489 65.8321C129.065 65.4844 131.652 65.1311 134.243 64.7774L133.838 61.8049C131.245 62.1588 128.661 62.5117 126.088 62.8591L126.489 65.8321ZM142.005 63.723C144.59 63.375 147.178 63.0312 149.766 62.6964L149.381 59.7212C146.786 60.0569 144.193 60.4014 141.605 60.7498L142.005 63.723ZM157.526 61.7236C160.12 61.4103 162.711 61.1108 165.295 60.8301L164.971 57.8476C162.373 58.1299 159.77 58.4307 157.166 58.7452L157.526 61.7236ZM173.056 60.0458C175.662 59.8039 178.258 59.5862 180.84 59.3978L180.621 56.4057C178.018 56.5958 175.402 56.8151 172.779 57.0587L173.056 60.0458ZM188.631 58.9207C191.241 58.7937 193.832 58.7025 196.402 58.6526L196.344 55.6531C193.742 55.7037 191.121 55.796 188.486 55.9243L188.631 58.9207ZM204.18 58.6335C206.803 58.6744 209.398 58.7656 211.963 58.913L212.135 55.9179C209.526 55.768 206.888 55.6754 204.227 55.6339L204.18 58.6335ZM219.69 59.5438C222.28 59.8217 224.831 60.1663 227.339 60.5843L227.832 57.6251C225.262 57.1969 222.653 56.8446 220.01 56.561L219.69 59.5438ZM234.926 62.1101C237.457 62.7126 239.937 63.4027 242.36 64.1877L243.285 61.3337C240.781 60.5227 238.224 59.8114 235.62 59.1917L234.926 62.1101ZM249.559 66.8786C251.92 67.8886 254.218 69.0061 256.446 70.2392L257.899 67.6143C255.578 66.33 253.189 65.1683 250.738 64.1202L249.559 66.8786ZM262.942 74.3092C265.011 75.771 267.008 77.3553 268.928 79.0701L270.926 76.8325C268.92 75.0406 266.833 73.3856 264.673 71.8591L262.942 74.3092ZM274.32 84.4642C275.175 85.4215 276.011 86.4116 276.827 87.4354L279.173 85.5646C278.321 84.4975 277.449 83.4648 276.557 82.4658L274.32 84.4642Z" fill="#C9D5F4"/>
</svg>
