<svg width="36" height="36" viewBox="0 0 36 36" fill="none" xmlns="http://www.w3.org/2000/svg">
<rect width="36" height="36" rx="18" fill="#FFD0D0"/>
<path fill-rule="evenodd" clip-rule="evenodd" d="M25.059 10.9403C25.343 11.2243 25.343 11.6848 25.059 11.9688L11.9681 25.0597C11.6841 25.3437 11.2236 25.3437 10.9396 25.0597C10.6556 24.7757 10.6556 24.3152 10.9396 24.0312L24.0305 10.9403C24.3145 10.6563 24.775 10.6563 25.059 10.9403Z" fill="#FF2424"/>
<path fill-rule="evenodd" clip-rule="evenodd" d="M13.2727 11.4545C12.2686 11.4545 11.4545 12.2686 11.4545 13.2727C11.4545 14.2769 12.2686 15.0909 13.2727 15.0909C14.2769 15.0909 15.0909 14.2769 15.0909 13.2727C15.0909 12.2686 14.2769 11.4545 13.2727 11.4545ZM10 13.2727C10 11.4652 11.4652 10 13.2727 10C15.0802 10 16.5455 11.4652 16.5455 13.2727C16.5455 15.0802 15.0802 16.5455 13.2727 16.5455C11.4652 16.5455 10 15.0802 10 13.2727Z" fill="#FF2424"/>
<path fill-rule="evenodd" clip-rule="evenodd" d="M22.7278 20.9091C21.7237 20.9091 20.9096 21.7231 20.9096 22.7273C20.9096 23.7314 21.7237 24.5455 22.7278 24.5455C23.732 24.5455 24.546 23.7314 24.546 22.7273C24.546 21.7231 23.732 20.9091 22.7278 20.9091ZM19.4551 22.7273C19.4551 20.9198 20.9203 19.4546 22.7278 19.4546C24.5353 19.4546 26.0005 20.9198 26.0005 22.7273C26.0005 24.5348 24.5353 26 22.7278 26C20.9203 26 19.4551 24.5348 19.4551 22.7273Z" fill="#FF2424"/>
</svg>
