<svg width="20" height="20" viewBox="0 0 20 20" fill="none" xmlns="http://www.w3.org/2000/svg">
<rect width="20" height="20" rx="10" fill="white"/>
<path fill-rule="evenodd" clip-rule="evenodd" d="M15.295 4.70517C15.508 4.91818 15.508 5.26355 15.295 5.47656L5.4768 15.2947C5.26379 15.5078 4.91843 15.5078 4.70541 15.2947C4.4924 15.0817 4.4924 14.7364 4.70541 14.5234L14.5236 4.70517C14.7366 4.49216 15.082 4.49216 15.295 4.70517Z" fill="#FF3636"/>
<path fill-rule="evenodd" clip-rule="evenodd" d="M6.45455 5.09091C5.70143 5.09091 5.09091 5.70143 5.09091 6.45455C5.09091 7.20766 5.70143 7.81818 6.45455 7.81818C7.20766 7.81818 7.81818 7.20766 7.81818 6.45455C7.81818 5.70143 7.20766 5.09091 6.45455 5.09091ZM4 6.45455C4 5.09894 5.09894 4 6.45455 4C7.81015 4 8.90909 5.09894 8.90909 6.45455C8.90909 7.81015 7.81015 8.90909 6.45455 8.90909C5.09894 8.90909 4 7.81015 4 6.45455Z" fill="#FF3636"/>
<path fill-rule="evenodd" clip-rule="evenodd" d="M13.5451 12.1817C12.792 12.1817 12.1815 12.7923 12.1815 13.5454C12.1815 14.2985 12.792 14.909 13.5451 14.909C14.2982 14.909 14.9088 14.2985 14.9088 13.5454C14.9088 12.7923 14.2982 12.1817 13.5451 12.1817ZM11.0906 13.5454C11.0906 12.1898 12.1895 11.0908 13.5451 11.0908C14.9007 11.0908 15.9997 12.1898 15.9997 13.5454C15.9997 14.901 14.9007 15.9999 13.5451 15.9999C12.1895 15.9999 11.0906 14.901 11.0906 13.5454Z" fill="#FF3636"/>
</svg>
