<svg width="36" height="36" viewBox="0 0 36 36" fill="none" xmlns="http://www.w3.org/2000/svg">
<path d="M32.087 2.73916C31.4387 2.73916 30.913 3.26475 30.913 3.9131V5.47172C27.5491 2.00264 22.9115 0 18 0C8.07483 0 0 8.07483 0 18C0 19.707 0.239977 21.3971 0.71325 23.0233C0.894375 23.6457 1.54568 24.0036 2.16844 23.8224C2.79091 23.6412 3.14873 22.9897 2.96754 22.3673C2.55628 20.9543 2.3478 19.4849 2.3478 18C2.3478 9.36942 9.36935 2.3478 18 2.3478C22.4224 2.3478 26.5904 4.21587 29.5377 7.43477H27.3914C26.7431 7.43477 26.2174 7.96036 26.2174 8.60871C26.2174 9.25699 26.743 9.78265 27.3914 9.78265C28.2366 9.78265 31.5986 9.78265 32.087 9.78265C32.7353 9.78265 33.261 9.25706 33.261 8.60871V3.91303C33.2608 3.26475 32.7352 2.73916 32.087 2.73916Z" fill="#32C2FD"/>
<path d="M17.9996 21.5217C17.0873 21.5217 16.5391 20.5281 16.9779 19.7677C17.3021 19.2063 17.1097 18.4883 16.5483 18.1642C15.9868 17.8399 15.2689 18.0322 14.9447 18.5937C13.6022 20.9189 15.2875 23.8695 17.9997 23.8695C18.6479 23.8695 19.1736 23.3439 19.1736 22.6956C19.1736 22.0472 18.6479 21.5217 17.9996 21.5217Z" fill="#32C2FD"/>
<path d="M25.1207 16.2438L19.0172 5.67398C18.5656 4.89182 17.4349 4.89323 16.984 5.67398L10.88 16.2436C10.88 16.2436 10.88 16.2436 10.8799 16.2436C7.73076 21.6975 11.685 28.5653 18.0003 28.5653C24.3218 28.5653 28.266 21.6904 25.1207 16.2438ZM18.0003 26.2175C13.479 26.2175 10.671 21.3001 12.9131 17.4176H12.9131L18.0005 8.60847L23.0876 17.418C25.3301 21.3011 22.5204 26.2175 18.0003 26.2175Z" fill="#32C2FD"/>
<path d="M35.2868 12.9764C35.1055 12.3539 34.4543 11.9961 33.8315 12.1773C33.209 12.3585 32.8513 13.01 33.0325 13.6325C33.4438 15.0457 33.6523 16.5152 33.6523 18.0001C33.6523 26.6307 26.6308 33.6523 18.0001 33.6523C13.5786 33.6523 9.40993 31.7838 6.46243 28.5651H8.77444C9.42273 28.5651 9.94838 28.0395 9.94838 27.3911C9.94838 26.7428 9.4228 26.2172 8.77444 26.2172H4.07876C3.37318 26.2172 2.74951 26.871 2.90483 27.6399V32.0867C2.90483 32.735 3.43041 33.2607 4.07876 33.2607C4.72712 33.2607 5.2527 32.7351 5.2527 32.0867V30.6977C8.60267 34.0625 13.17 36.0001 18.0001 36.0001C27.9253 36.0001 36.0001 27.9252 36.0001 18.0001C36.0001 16.2929 35.7601 14.6028 35.2868 12.9764Z" fill="#32C2FD"/>
</svg>
