<svg width="36" height="28" viewBox="0 0 36 28" fill="none" xmlns="http://www.w3.org/2000/svg">
<path fill-rule="evenodd" clip-rule="evenodd" d="M17.9998 19.9927C19.8716 19.9927 21.4768 18.4145 21.4768 16.3576C21.4768 14.5488 20.4288 12.3478 19.1555 10.4139C18.7572 9.80876 18.3575 9.26051 17.9998 8.79641C17.6421 9.26051 17.2424 9.80876 16.8441 10.4139C15.5708 12.3478 14.5227 14.5488 14.5227 16.3576C14.5227 18.4145 16.128 19.9927 17.9998 19.9927ZM16.8668 7.42297C15.3327 9.35943 12.7842 13.0708 12.7842 16.3576C12.7842 19.3254 15.1193 21.7313 17.9998 21.7313C20.8803 21.7313 23.2154 19.3254 23.2154 16.3576C23.2154 13.0708 20.6669 9.35943 19.1328 7.42297C18.4722 6.58917 17.9998 6.08447 17.9998 6.08447C17.9998 6.08447 17.5273 6.58917 16.8668 7.42297Z" fill="#8954D2"/>
<path fill-rule="evenodd" clip-rule="evenodd" d="M26.6052 5.30295C21.8527 0.550387 14.1473 0.550387 9.39472 5.30295L8.16532 4.07363C13.5968 -1.35788 22.4031 -1.35788 27.8346 4.07363C30.539 6.77801 31.8971 10.3209 31.9082 13.8643V13.867V17.025L34.7706 14.1626L36 15.3919L31.6537 19.7382L31.039 20.3529L30.4243 19.7382L26.0779 15.3919L27.3073 14.1626L30.1697 17.0249V13.8697V13.8683C30.1596 10.7659 28.9716 7.66927 26.6052 5.30295ZM9.39472 22.5135C14.1473 27.2661 21.8527 27.2661 26.6052 22.5135L27.8346 23.7429C22.4031 29.1744 13.5968 29.1744 8.16532 23.7429C5.45049 21.028 4.09244 17.4682 4.09173 13.911L4.09172 13.9109V10.791L1.22932 13.6534L0 12.4241L4.34633 8.07773L4.96099 7.46308L5.57565 8.07773L9.92202 12.4241L8.69262 13.6534L5.83026 10.791L5.83025 13.9107L5.83026 13.9109C5.83091 17.0259 7.01893 20.1378 9.39472 22.5135Z" fill="#8954D2"/>
</svg>
