<svg width="31" height="31" viewBox="0 0 31 31" fill="none" xmlns="http://www.w3.org/2000/svg">
<path d="M18.0232 1.95926H18.0286H18.0232ZM18.0232 1.95926L15.8373 13.4443L23.7563 13.4709L12.977 29.0407L15.163 16.4053L7.24446 16.3777L18.0232 1.95926ZM18.0247 0.0217891C17.9724 0.0217891 17.9201 0.0236963 17.8688 0.027541C17.5268 0.0551807 17.3001 0.169493 17.0313 0.350165C16.8799 0.451078 16.7435 0.57271 16.6259 0.711509C16.5905 0.753167 16.5572 0.796487 16.5261 0.841321L5.66976 15.2093C5.24109 15.7969 5.17812 16.5724 5.50749 17.2205C5.83638 17.8686 6.50143 18.2793 7.23042 18.2847L12.823 18.3254L11.0647 28.6847C10.8976 29.575 11.3723 30.4623 12.2079 30.8198C12.4507 30.9242 12.7122 30.9779 12.9765 30.9777C13.5854 30.9777 14.0857 30.6929 14.4612 30.1785L25.331 14.6087C25.7597 14.0211 25.8222 13.2447 25.4933 12.5976C25.1644 11.9495 24.4994 11.5387 23.7704 11.5334L18.1778 11.5237L19.9172 2.41503C19.954 2.2659 19.9726 2.11284 19.9724 1.95923C19.9724 0.911041 19.1378 0.0566035 18.0935 0.0226973C18.0703 0.0217285 18.0475 0.0217285 18.0247 0.0217285L18.0247 0.0217891Z" fill="#2A5CAB"/>
</svg>
