<svg width="40" height="40" viewBox="0 0 40 40" fill="none" xmlns="http://www.w3.org/2000/svg">
<path d="M25.7145 13.4291C26.819 13.4291 27.7145 12.5337 27.7145 11.4291C27.7145 10.3245 26.819 9.42911 25.7145 9.42911H23.8097C22.9362 9.42911 22.0764 9.61823 21.2812 9.97974C20.4866 10.3409 19.7774 10.8646 19.1886 11.5108C18.6002 12.1567 18.1421 12.9136 17.8324 13.7342C17.5228 14.5546 17.3653 15.4284 17.3653 16.3071V21.9724H14.2859C13.1813 21.9724 12.2859 22.8679 12.2859 23.9724C12.2859 25.077 13.1813 25.9724 14.2859 25.9724H17.3653V37.8078C8.67308 36.5329 2 29.0455 2 19.9996C2 10.0587 10.0588 2 20 2C29.9412 2 38 10.0587 38 19.9996C38 29.4812 30.6686 37.2506 21.3653 37.9482V25.9724H25.7145C26.819 25.9724 27.7145 25.077 27.7145 23.9724C27.7145 22.8679 26.819 21.9724 25.7145 21.9724H21.3653V16.3071C21.3653 15.9046 21.4377 15.5098 21.5748 15.1465C21.7118 14.7834 21.9085 14.4649 22.1454 14.2048C22.382 13.9451 22.6527 13.7502 22.9366 13.6211C23.2199 13.4923 23.5159 13.4291 23.8097 13.4291H25.7145Z" stroke="#284C71" stroke-width="4" stroke-linecap="round" stroke-linejoin="round"/>
</svg>
