<svg width="16" height="16" viewBox="0 0 16 16" fill="none" xmlns="http://www.w3.org/2000/svg">
<path d="M9.83578 5.23207C10.25 5.23207 10.5858 4.89628 10.5858 4.48207C10.5858 4.06785 10.25 3.73207 9.83578 3.73207H9.10721C8.77525 3.73207 8.44849 3.80394 8.14625 3.94134C7.84426 4.07864 7.57463 4.2777 7.35073 4.52345C7.12696 4.76905 6.95273 5.05693 6.83492 5.36907C6.71714 5.68118 6.65721 6.0136 6.65721 6.34792V8.52998H5.46436C5.05014 8.52998 4.71436 8.86576 4.71436 9.27998C4.71436 9.69419 5.05014 10.03 5.46436 10.03H6.65721V14.5895C3.31683 14.1081 0.75 11.234 0.75 7.76035C0.75 3.94959 3.83924 0.860352 7.65 0.860352C11.4608 0.860352 14.55 3.94959 14.55 7.76035C14.55 11.4005 11.7312 14.3823 8.15721 14.642V10.03H9.83578C10.25 10.03 10.5858 9.69419 10.5858 9.27998C10.5858 8.86576 10.25 8.52998 9.83578 8.52998H8.15721V6.34792C8.15721 6.19218 8.18523 6.03935 8.23831 5.8987C8.29137 5.7581 8.36758 5.6346 8.45953 5.53368C8.55135 5.4329 8.65654 5.35709 8.76705 5.30685C8.87732 5.25672 8.99268 5.23207 9.10721 5.23207H9.83578Z" stroke="#284C71" stroke-width="1.5" stroke-linecap="round" stroke-linejoin="round"/>
</svg>
