<svg width="17" height="17" viewBox="0 0 17 17" fill="none" xmlns="http://www.w3.org/2000/svg">
<path d="M5.1401 6.32286L4.768 5.67168C4.53432 5.80521 4.3901 6.05372 4.3901 6.32286H5.1401ZM10.7587 11.6457V12.3957C11.0587 12.3957 11.3298 12.2169 11.448 11.9412L10.7587 11.6457ZM6.33782 1.4995L5.58898 1.5411L6.33782 1.4995ZM11.409 10.1282L12.0984 10.4237L11.409 10.1282ZM12.1803 9.84759L12.4602 9.15175L12.1803 9.84759ZM6.74497 5.40579L6.37287 4.75461L6.74497 5.40579ZM0.25 2.18286C0.25 6.61665 1.55232 10.2276 4.05521 12.7305C6.55809 15.2334 10.1691 16.5357 14.6029 16.5357V15.0357C10.4609 15.0357 7.27048 13.8245 5.11587 11.6698C2.96125 9.51524 1.75 6.32478 1.75 2.18286H0.25ZM16.5357 14.6029V10.9629H15.0357V14.6029H16.5357ZM4.3901 6.32286C4.3901 7.89951 5.17179 9.41514 6.31986 10.5222C7.47149 11.6327 9.05596 12.3957 10.7587 12.3957V10.8957C9.50424 10.8957 8.27942 10.328 7.36106 9.44244C6.43913 8.55343 5.8901 7.40764 5.8901 6.32286H4.3901ZM5.5122 6.97404L7.11708 6.05697L6.37287 4.75461L4.768 5.67168L5.5122 6.97404ZM11.448 11.9412L12.0984 10.4237L10.7197 9.83279L10.0693 11.3503L11.448 11.9412ZM7.65452 4.37548C7.34064 3.62803 7.13971 2.41273 7.08667 1.4579L5.58898 1.5411C5.64615 2.57031 5.86194 3.98093 6.27152 4.95625L7.65452 4.37548ZM5.82296 0.250005L2.18286 0.250001L2.18286 1.75L5.82296 1.75L5.82296 0.250005ZM11.9005 10.5434C12.8697 10.9332 14.2369 11.1408 15.2446 11.1968L15.3278 9.69914C14.3974 9.64744 13.2138 9.45483 12.4602 9.15175L11.9005 10.5434ZM7.08667 1.4579C7.05062 0.80901 6.52101 0.250005 5.82296 0.250005L5.82296 1.75C5.67719 1.75 5.59439 1.63856 5.58898 1.5411L7.08667 1.4579ZM16.5357 10.9629C16.5357 10.2648 15.9767 9.7352 15.3278 9.69914L15.2446 11.1968C15.1472 11.1914 15.0357 11.1086 15.0357 10.9629H16.5357ZM12.0984 10.4237C12.0656 10.5001 12.0075 10.5348 11.9772 10.5452C11.9513 10.5542 11.9268 10.554 11.9005 10.5434L12.4602 9.15175C11.8705 8.91462 11.0348 9.09748 10.7197 9.83279L12.0984 10.4237ZM14.6029 16.5357C15.6703 16.5357 16.5357 15.6703 16.5357 14.6029H15.0357C15.0357 14.8419 14.8419 15.0357 14.6029 15.0357V16.5357ZM7.11708 6.05697C7.76086 5.6891 7.88343 4.92059 7.65452 4.37548L6.27152 4.95625C6.26219 4.93404 6.25977 4.9101 6.26771 4.8815C6.27675 4.84893 6.30619 4.79271 6.37287 4.75461L7.11708 6.05697ZM1.75 2.18286C1.75 1.9438 1.9438 1.75 2.18286 1.75L2.18286 0.250001C1.11537 0.25 0.25 1.11537 0.25 2.18286H1.75Z" fill="#284C71"/>
</svg>
