<svg width="26" height="25" viewBox="0 0 26 25" fill="none" xmlns="http://www.w3.org/2000/svg">
<path d="M18.3766 0H8.27185C4.16521 0 0.824219 3.34099 0.824219 7.44764V17.5524C0.824219 21.659 4.16521 25 8.27185 25H18.3766C22.4832 25 25.8242 21.659 25.8242 17.5524V7.44764C25.8242 3.34099 22.4832 0 18.3766 0ZM23.3092 17.5524C23.3092 20.2766 21.1008 22.485 18.3766 22.485H8.27185C5.54766 22.485 3.33922 20.2766 3.33922 17.5524V7.44764C3.33922 4.72339 5.54766 2.515 8.27185 2.515H18.3766C21.1008 2.515 23.3092 4.72339 23.3092 7.44764V17.5524Z" fill="#DA408A"/>
<path d="M13.3243 6.03418C9.75899 6.03418 6.8584 8.93477 6.8584 12.5C6.8584 16.0653 9.75899 18.9659 13.3243 18.9659C16.8896 18.9659 19.7902 16.0653 19.7902 12.5C19.7902 8.93473 16.8896 6.03418 13.3243 6.03418ZM13.3243 16.451C11.1423 16.451 9.3734 14.6821 9.3734 12.5001C9.3734 10.318 11.1423 8.54918 13.3243 8.54918C15.5063 8.54918 17.2752 10.318 17.2752 12.5001C17.2752 14.6821 15.5063 16.451 13.3243 16.451Z" fill="#DA408A"/>
<path d="M19.8025 7.63183C20.6582 7.63183 21.3518 6.93818 21.3518 6.08252C21.3518 5.22686 20.6582 4.5332 19.8025 4.5332C18.9468 4.5332 18.2532 5.22686 18.2532 6.08252C18.2532 6.93818 18.9468 7.63183 19.8025 7.63183Z" fill="#DA408A"/>
</svg>
