<svg width="18" height="18" viewBox="0 0 18 18" fill="none" xmlns="http://www.w3.org/2000/svg">
<path d="M2.88659 16.1092L3.23232 15.4436L3.23232 15.4436L2.88659 16.1092ZM1.39405 14.6166L2.05961 14.2709L2.05961 14.2709L1.39405 14.6166ZM15.9988 14.6166L15.3332 14.2709L15.3332 14.2709L15.9988 14.6166ZM14.5063 16.1092L14.1605 15.4436L14.1605 15.4436L14.5063 16.1092ZM14.5063 1.5044L14.1605 2.16996L14.1605 2.16996L14.5063 1.5044ZM15.9988 2.99694L15.3332 3.34267L15.3332 3.34267L15.9988 2.99694ZM2.88659 1.5044L3.23232 2.16996L3.23232 2.16996L2.88659 1.5044ZM1.39405 2.99694L2.05961 3.34267L2.05961 3.34267L1.39405 2.99694ZM11.8978 10.0107L12.5999 10.2747L12.5999 10.2747L11.8978 10.0107ZM12.1148 8.69381L12.8644 8.66901L12.8644 8.66901L12.1148 8.69381ZM11.8113 7.39411L12.4943 7.08435L12.4943 7.08435L11.8113 7.39411ZM11.0335 6.30951L11.546 5.76193L11.546 5.76193L11.0335 6.30951ZM9.89985 5.6051L9.6359 6.30712L9.6359 6.30712L9.89985 5.6051ZM7.28324 5.69167L6.97347 5.00863L6.97347 5.00863L7.28324 5.69167ZM6.19863 6.46945L5.65105 5.95695L5.65105 5.95695L6.19863 6.46945ZM5.49423 7.6031L6.19625 7.86704L6.19625 7.86704L5.49423 7.6031ZM6.35858 11.3043L5.84607 11.8519L5.84607 11.8519L6.35858 11.3043ZM7.49222 12.0087L7.22828 12.7107L7.22828 12.7107L7.49222 12.0087ZM10.1088 11.9222L9.79907 11.2391L9.79907 11.2391L10.1088 11.9222ZM11.1934 11.1444L11.741 11.6569L11.741 11.6569L11.1934 11.1444ZM6.635 1.86035H10.7579V0.360352H6.635V1.86035ZM15.6429 6.74535V10.8682H17.1429V6.74535H15.6429ZM10.7579 15.7532H6.635V17.2532H10.7579V15.7532ZM1.75 10.8682V6.74535H0.25V10.8682H1.75ZM6.635 15.7532C5.6258 15.7532 4.91477 15.7526 4.35988 15.7065C3.81397 15.6612 3.48672 15.5757 3.23232 15.4436L2.54086 16.7747C3.04505 17.0366 3.59539 17.1482 4.23574 17.2014C4.8671 17.2538 5.65098 17.2532 6.635 17.2532V15.7532ZM0.25 10.8682C0.25 11.8522 0.249397 12.6361 0.30183 13.2675C0.355007 13.9078 0.466588 14.4582 0.728493 14.9623L2.05961 14.2709C1.92746 14.0165 1.84202 13.6892 1.79668 13.1433C1.7506 12.5884 1.75 11.8774 1.75 10.8682H0.25ZM3.23232 15.4436C2.73005 15.1827 2.32052 14.7732 2.05961 14.2709L0.728493 14.9623C1.13171 15.7386 1.76462 16.3715 2.54086 16.7747L3.23232 15.4436ZM15.6429 10.8682C15.6429 11.8774 15.6423 12.5884 15.5962 13.1433C15.5508 13.6892 15.4654 14.0165 15.3332 14.2709L16.6644 14.9623C16.9263 14.4582 17.0378 13.9078 17.091 13.2675C17.1435 12.6361 17.1429 11.8522 17.1429 10.8682H15.6429ZM10.7579 17.2532C11.7419 17.2532 12.5258 17.2538 13.1571 17.2014C13.7975 17.1482 14.3478 17.0366 14.852 16.7747L14.1605 15.4436C13.9061 15.5757 13.5789 15.6612 13.033 15.7065C12.4781 15.7526 11.7671 15.7532 10.7579 15.7532V17.2532ZM15.3332 14.2709C15.0723 14.7732 14.6628 15.1827 14.1605 15.4436L14.852 16.7747C15.6282 16.3715 16.2611 15.7386 16.6644 14.9623L15.3332 14.2709ZM10.7579 1.86035C11.7671 1.86035 12.4781 1.86095 13.033 1.90704C13.5789 1.95237 13.9061 2.03782 14.1605 2.16996L14.852 0.838844C14.3478 0.57694 13.7975 0.465359 13.1571 0.412181C12.5258 0.359749 11.7419 0.360352 10.7579 0.360352V1.86035ZM17.1429 6.74535C17.1429 5.76133 17.1435 4.97746 17.091 4.34609C17.0378 3.70574 16.9263 3.1554 16.6644 2.65121L15.3332 3.34267C15.4654 3.59707 15.5508 3.92432 15.5962 4.47023C15.6423 5.02512 15.6429 5.73615 15.6429 6.74535H17.1429ZM14.1605 2.16996C14.6628 2.43087 15.0723 2.8404 15.3332 3.34267L16.6644 2.65121C16.2611 1.87498 15.6282 1.24207 14.852 0.838844L14.1605 2.16996ZM6.635 0.360352C5.65098 0.360352 4.8671 0.359749 4.23574 0.412181C3.59539 0.465359 3.04505 0.57694 2.54086 0.838844L3.23232 2.16996C3.48672 2.03782 3.81397 1.95237 4.35988 1.90704C4.91477 1.86095 5.6258 1.86035 6.635 1.86035V0.360352ZM1.75 6.74535C1.75 5.73616 1.7506 5.02512 1.79668 4.47023C1.84202 3.92432 1.92746 3.59707 2.05961 3.34267L0.728493 2.65121C0.466588 3.1554 0.355007 3.70574 0.30183 4.34609C0.249397 4.97746 0.25 5.76133 0.25 6.74535H1.75ZM2.54086 0.838844C1.76463 1.24207 1.13171 1.87498 0.728493 2.65121L2.05961 3.34267C2.32052 2.8404 2.73005 2.43087 3.23232 2.16996L2.54086 0.838844ZM12.5999 10.2747C12.7926 9.76201 12.8825 9.21641 12.8644 8.66901L11.3652 8.71861C11.3768 9.06913 11.3192 9.4185 11.1958 9.74678L12.5999 10.2747ZM12.8644 8.66901C12.8463 8.12162 12.7205 7.58315 12.4943 7.08435L11.1282 7.70388C11.2731 8.02328 11.3536 8.36809 11.3652 8.71861L12.8644 8.66901ZM12.4943 7.08435C12.2681 6.58555 11.9459 6.13619 11.546 5.76193L10.521 6.85708C10.777 7.09674 10.9834 7.38448 11.1282 7.70388L12.4943 7.08435ZM11.546 5.76193C11.1461 5.38767 10.6765 5.09583 10.1638 4.90308L9.6359 6.30712C9.96418 6.43055 10.2649 6.61742 10.521 6.85708L11.546 5.76193ZM10.1638 4.90308C9.65114 4.71033 9.10553 4.62045 8.55814 4.63856L8.60773 6.13774C8.95825 6.12614 9.30763 6.1837 9.6359 6.30712L10.1638 4.90308ZM8.55814 4.63856C8.01074 4.65667 7.47227 4.78242 6.97347 5.00863L7.59301 6.37471C7.91241 6.22986 8.25721 6.14933 8.60773 6.13774L8.55814 4.63856ZM6.97347 5.00863C6.47468 5.23484 6.02532 5.55708 5.65105 5.95695L6.7462 6.98196C6.98586 6.7259 7.2736 6.51956 7.59301 6.37471L6.97347 5.00863ZM5.65105 5.95695C5.27679 6.35682 4.98496 6.8265 4.79221 7.33915L6.19625 7.86704C6.31967 7.53877 6.50655 7.23801 6.7462 6.98196L5.65105 5.95695ZM4.79221 7.33915C4.59946 7.85181 4.50957 8.39741 4.52768 8.94481L6.02686 8.89521C6.01527 8.54469 6.07282 8.19532 6.19625 7.86704L4.79221 7.33915ZM4.52768 8.94481C4.54579 9.49221 4.67154 10.0307 4.89775 10.5295L6.26383 9.90994C6.11898 9.59054 6.03846 9.24574 6.02686 8.89521L4.52768 8.94481ZM4.89775 10.5295C5.12396 11.0283 5.4462 11.4776 5.84607 11.8519L6.87108 10.7567C6.61503 10.5171 6.40868 10.2293 6.26383 9.90994L4.89775 10.5295ZM5.84607 11.8519C6.24595 12.2262 6.71562 12.518 7.22828 12.7107L7.75617 11.3067C7.42789 11.1833 7.12714 10.9964 6.87108 10.7567L5.84607 11.8519ZM7.22828 12.7107C7.74094 12.9035 8.28654 12.9934 8.83394 12.9753L8.78434 11.4761C8.43382 11.4877 8.08445 11.4301 7.75617 11.3067L7.22828 12.7107ZM8.83394 12.9753C9.38133 12.9572 9.9198 12.8314 10.4186 12.6052L9.79907 11.2391C9.47967 11.384 9.13486 11.4645 8.78434 11.4761L8.83394 12.9753ZM10.4186 12.6052C10.9174 12.379 11.3668 12.0567 11.741 11.6569L10.6459 10.6319C10.4062 10.8879 10.1185 11.0943 9.79907 11.2391L10.4186 12.6052ZM11.741 11.6569C12.1153 11.257 12.4071 10.7873 12.5999 10.2747L11.1958 9.74678C11.0724 10.0751 10.8855 10.3758 10.6459 10.6319L11.741 11.6569Z" fill="#284C71"/>
</svg>
