<svg width="678" height="329" viewBox="0 0 678 329" fill="none" xmlns="http://www.w3.org/2000/svg">
<path d="M12.5 283.5C36.9528 238.795 189.512 175.976 330.972 277.03C481.222 384.365 585 229.5 678 229.5" stroke="#E6F0F6" stroke-opacity="0.13" stroke-width="27"/>
<path d="M663.949 14.4915C665.456 10.6332 663.55 6.28381 659.692 4.77683C655.834 3.26986 651.484 5.17596 649.977 9.03424L663.949 14.4915ZM290 -2.92586e-07C290 34.3633 312.152 59.909 343.568 76.7845C374.959 93.6459 416.762 102.626 459.54 103.931C502.371 105.237 546.886 98.872 583.884 84.3994C620.746 69.9795 651.235 47.0433 663.949 14.4915L649.977 9.03424C639.408 36.0958 613.322 56.7769 578.419 70.4301C543.651 84.0307 501.211 90.1947 459.997 88.9378C418.731 87.6793 379.4 79.0044 350.667 63.5703C321.96 48.1504 305 26.7605 305 2.92586e-07L290 -2.92586e-07Z" fill="#E6F0F6" fill-opacity="0.1"/>
</svg>
