<svg width="314" height="214" viewBox="0 0 314 214" fill="none" xmlns="http://www.w3.org/2000/svg">
<path d="M1 204.5C138.5 204.5 194.5 125.5 312.5 130.5" stroke="#CAE3FF" stroke-width="18"/>
<path d="M311.624 14.5785L313.202 11.4547L306.955 8.29765L305.376 11.4215L311.624 14.5785ZM0.471889 4.25515C12.3635 24.7715 34.8886 41.5132 62.2503 53.6749C89.6776 65.8656 122.331 73.6222 155.004 75.9288C187.665 78.2347 220.538 75.1075 248.361 65.3577C276.186 55.607 299.219 39.1268 311.624 14.5785L305.376 11.4215C294.031 33.8732 272.752 49.393 246.046 58.7516C219.337 68.1113 187.46 71.2028 155.496 68.9462C123.544 66.6903 91.6974 59.1031 65.0934 47.2783C38.4239 35.4243 17.3865 19.4785 6.52811 0.744853L0.471889 4.25515Z" fill="#CEE5FF"/>
</svg>
