<svg width="650" height="322" viewBox="0 0 650 322" fill="none" xmlns="http://www.w3.org/2000/svg">
<path d="M1 266C24 266 161.512 168.976 302.972 270.03C453.222 377.365 557 222.5 650 222.5" stroke="#CAE3FF" stroke-width="27"/>
<path d="M635.949 14.4915C637.456 10.6332 635.55 6.28381 631.692 4.77683C627.834 3.26986 623.484 5.17596 621.977 9.03424L635.949 14.4915ZM262 -2.92586e-07C262 34.3633 284.152 59.909 315.568 76.7845C346.959 93.6458 388.762 102.626 431.54 103.931C474.371 105.237 518.886 98.872 555.884 84.3994C592.746 69.9795 623.235 47.0433 635.949 14.4915L621.977 9.03424C611.408 36.0958 585.322 56.7769 550.419 70.4301C515.651 84.0307 473.211 90.1947 431.997 88.9378C390.731 87.6793 351.4 79.0044 322.667 63.5703C293.96 48.1504 277 26.7605 277 2.92586e-07L262 -2.92586e-07Z" fill="#CEE5FF"/>
</svg>
