<svg width="33" height="25" viewBox="0 0 33 25" fill="none" xmlns="http://www.w3.org/2000/svg">
<path d="M29.3101 1H3.36187C2.06122 1 1 2.06122 1 3.36187V21.6356C1 22.9362 2.06122 23.9975 3.36187 23.9975H29.3101C30.6107 23.9975 31.6719 22.9362 31.6719 21.6356V3.36187C31.6719 2.06122 30.6107 1 29.3101 1ZM28.9671 2.74714L16.4977 13.4111L4.02837 2.74714H28.9671ZM29.9248 21.6356C29.9248 21.9721 29.6465 22.2503 29.3101 22.2503H3.36187C3.02538 22.2503 2.74713 21.9721 2.74713 21.6356V3.95072L15.9283 15.223C15.9348 15.2294 15.9477 15.2359 15.9542 15.2424C15.9606 15.2489 15.9736 15.2553 15.9801 15.2618C15.9995 15.2747 16.0124 15.2877 16.0318 15.2942C16.0383 15.3006 16.0448 15.3006 16.0512 15.3071C16.0771 15.32 16.103 15.333 16.1289 15.3459C16.1354 15.3459 16.1418 15.3524 16.1483 15.3524C16.1677 15.3589 16.1871 15.3718 16.213 15.3783C16.2195 15.3783 16.2324 15.3847 16.2389 15.3847C16.2583 15.3912 16.2777 15.3977 16.2971 15.3977C16.3036 15.3977 16.3165 15.4042 16.323 15.4042C16.3424 15.4106 16.3683 15.4106 16.3877 15.4171C16.3942 15.4171 16.4007 15.4171 16.4071 15.4171C16.433 15.4171 16.4654 15.4236 16.4913 15.4236C16.5171 15.4236 16.5495 15.4236 16.5754 15.4171C16.5819 15.4171 16.5883 15.4171 16.5948 15.4171C16.6142 15.4171 16.6401 15.4106 16.6595 15.4042C16.666 15.4042 16.6789 15.3977 16.6854 15.3977C16.7048 15.3912 16.7242 15.3847 16.7436 15.3847C16.7501 15.3847 16.763 15.3783 16.7695 15.3783C16.7889 15.3718 16.8083 15.3653 16.8342 15.3524C16.8407 15.3524 16.8472 15.3459 16.8536 15.3459C16.8795 15.333 16.9054 15.32 16.9313 15.3071C16.9377 15.3006 16.9442 15.3006 16.9507 15.2942C16.9701 15.2812 16.983 15.2747 17.0025 15.2618C17.0089 15.2553 17.0219 15.2489 17.0283 15.2424C17.0348 15.2359 17.0478 15.2294 17.0542 15.223L29.9248 4.22896V21.6356Z" fill="#5F6C8B" stroke="#5F6C8B"/>
</svg>
