<svg width="335" height="548" viewBox="0 0 335 548" fill="none" xmlns="http://www.w3.org/2000/svg">
<path d="M41.5069 557.438C178.101 541.68 224.678 456.782 342.474 448.226" stroke="#F4F7FF" stroke-width="18"/>
<path d="M267.124 -1.92147L268.702 -5.04529L262.455 -8.20235L260.876 -5.07853L267.124 -1.92147ZM-44.0281 -12.2449C-32.1365 8.27145 -9.61141 25.0132 17.7503 37.1749C45.1776 49.3656 77.8313 57.1222 110.504 59.4288C143.165 61.7347 176.038 58.6075 203.861 48.8577C231.686 39.107 254.719 22.6268 267.124 -1.92147L260.876 -5.07853C249.531 17.3732 228.252 32.893 201.546 42.2516C174.837 51.6113 142.96 54.7028 110.996 52.4462C79.0437 50.1903 47.1974 42.6031 20.5934 30.7783C-6.07609 18.9243 -27.1135 2.97855 -37.9719 -15.7551L-44.0281 -12.2449Z" fill="#F4F7FF"/>
</svg>
