<svg width="490" height="630" viewBox="0 0 490 630" fill="none" xmlns="http://www.w3.org/2000/svg">
<path d="M199.507 640.438C336.101 624.68 382.678 539.782 500.474 531.226" stroke="#F4F7FF" stroke-width="18"/>
<path d="M-15.4194 -0.372243L-17.8064 -2.93198L-12.6869 -7.70596L-10.2999 -5.14622L-15.4194 -0.372243ZM273.681 -116.594C270.595 -90.1431 256.05 -64.1212 235.029 -41.4394C213.983 -18.7306 186.249 0.851473 156.333 14.4202C96.7786 41.4313 27.0306 45.15 -15.4194 -0.372243L-10.2999 -5.14622C29.0457 37.047 94.8846 34.604 153.441 8.04526C182.58 -5.17096 209.532 -24.2259 229.895 -46.1976C250.283 -68.1962 263.869 -92.8982 266.728 -117.406L273.681 -116.594Z" fill="#F4F7FF"/>
</svg>
