<svg width="18" height="19" viewBox="0 0 18 19" fill="none" xmlns="http://www.w3.org/2000/svg">
<path d="M17.421 13.4564C17.3892 13.43 13.7958 10.8584 12.8208 11.027C12.3522 11.1098 12.084 11.429 11.547 12.0692C11.4606 12.1724 11.2524 12.419 11.0916 12.5948C10.7522 12.4842 10.4211 12.3495 10.101 12.1916C8.44831 11.387 7.113 10.0517 6.3084 8.399C6.15052 8.07885 6.01577 7.7478 5.9052 7.4084C6.0816 7.247 6.3288 7.0388 6.4344 6.95C7.071 6.416 7.3902 6.1478 7.473 5.6786C7.6428 4.7072 5.07 1.1108 5.0436 1.0784C4.92643 0.912234 4.77384 0.774155 4.59682 0.67413C4.41981 0.574106 4.22279 0.514631 4.02 0.5C2.9772 0.5 0 4.3616 0 5.0126C0 5.0504 0.0546 8.8928 4.7928 13.7126C9.6072 18.4454 13.4496 18.5 13.4874 18.5C14.1384 18.5 18 15.5228 18 14.48C17.9854 14.2771 17.9259 14.0801 17.8257 13.903C17.7256 13.726 17.5873 13.5734 17.421 13.4564ZM13.4214 17.2964C12.897 17.2532 9.6726 16.8278 5.6412 12.8672C1.6602 8.8142 1.2456 5.5808 1.2042 5.0798C1.99067 3.84539 2.94048 2.72301 4.0278 1.7432C4.0518 1.7672 4.0836 1.8032 4.1244 1.85C4.9583 2.98834 5.67665 4.20696 6.2688 5.4878C6.07624 5.68152 5.8727 5.86402 5.6592 6.0344C5.32812 6.28667 5.02409 6.5726 4.752 6.8876L4.6062 7.0916L4.6494 7.3382C4.77638 7.88824 4.97085 8.42047 5.2284 8.9228C6.15113 10.8176 7.68226 12.3485 9.5772 13.271C10.0794 13.5289 10.6117 13.7236 11.1618 13.8506L11.4084 13.8938L11.6124 13.748C11.9286 13.4747 12.2157 13.1695 12.4692 12.8372C12.657 12.6128 12.9084 12.3134 13.0032 12.2288C14.2877 12.8204 15.5094 13.5396 16.65 14.3756C16.6998 14.4176 16.7346 14.45 16.758 14.471C15.7783 15.5587 14.656 16.5087 13.4214 17.2952V17.2964Z" fill="#203E5F"/>
</svg>
