<svg width="15" height="15" viewBox="0 0 15 15" fill="none" xmlns="http://www.w3.org/2000/svg">
<path d="M14.8392 11.3759C14.2808 10.3202 12.3418 9.17549 12.2564 9.12543C12.0073 8.98359 11.7473 8.9085 11.504 8.9085C11.1422 8.9085 10.8461 9.07426 10.6667 9.37573C10.3831 9.71503 10.0313 10.1116 9.94594 10.1731C9.28524 10.6214 8.76802 10.5705 8.19575 9.99815L5.0018 6.80347C4.43315 6.23473 4.38087 5.71104 4.82606 5.05386C4.88835 4.96793 5.28488 4.61583 5.62413 4.33188C5.84047 4.20311 5.98896 4.01177 6.05403 3.77705C6.14051 3.46473 6.07683 3.09734 5.87273 2.73941C5.82462 2.65709 4.67952 0.71753 3.62451 0.159359C3.42763 0.0550663 3.20573 0 2.98327 0C2.61677 0 2.27196 0.14295 2.0128 0.401873L1.30705 1.10744C0.190868 2.22351 -0.213172 3.48864 0.105499 4.86753C0.371337 6.01669 1.14605 7.23955 2.4085 8.5019L6.49756 12.5915C8.09536 14.1896 9.61864 15 11.0251 15C11.0251 15 11.0251 15 11.0254 15C12.0598 15 13.0242 14.5603 13.891 13.6934L14.5964 12.9879C15.0252 12.5593 15.1225 11.9113 14.8392 11.3759Z" fill="#284C71"/>
</svg>
