<svg width="36" height="36" viewBox="0 0 36 36" fill="none" xmlns="http://www.w3.org/2000/svg">
<path d="M16.886 7.89015C16.4571 7.93865 16.1472 8.32369 16.1942 8.75415C16.2427 9.18299 16.6183 9.49137 17.0582 9.44595C19.6689 9.16106 22.2343 10.0579 24.0891 11.9112C25.9423 13.7659 26.8407 16.3282 26.5528 18.9421C26.5043 19.3726 26.8157 19.7591 27.2446 19.8061C27.2727 19.8092 27.3025 19.8108 27.3306 19.8108C27.7251 19.8108 28.0631 19.515 28.1069 19.1127C28.4466 16.0245 27.3854 12.9958 25.1941 10.8045C23.0028 8.61328 19.9789 7.55368 16.886 7.89015Z" fill="#7070FF"/>
<path d="M18.2284 26.5961C15.8243 26.6728 13.5938 25.7697 11.9128 24.0871C10.2317 22.4045 9.33957 20.1615 9.40377 17.7715C9.4147 17.3395 9.07353 16.9794 8.64153 16.9685C8.26273 16.9904 7.84951 17.2987 7.83858 17.7307C7.76499 20.556 8.81681 23.2059 10.8062 25.1937C12.7283 27.1157 15.2702 28.1645 17.989 28.1645C18.0814 28.1645 18.1753 28.1645 18.2692 28.1613C18.7012 28.1504 19.0425 27.7904 19.0315 27.3584C19.0205 26.9248 18.6417 26.604 18.2284 26.5961Z" fill="#7070FF"/>
<path d="M33.4988 14.2404C32.7615 13.5955 31.9993 12.9287 31.7426 12.3105C31.4655 11.6437 31.5297 10.5965 31.5923 9.58543C31.6894 7.98737 31.7911 6.33758 30.7283 5.27329C29.6656 4.21053 28.0142 4.31383 26.4162 4.40929C25.4019 4.47033 24.3563 4.53292 23.6912 4.25903C23.0729 4.00231 22.4061 3.24007 21.7612 2.50285C20.736 1.33041 19.5715 0 18 0C16.4285 0 15.2639 1.33041 14.2403 2.50124C13.5954 3.23846 12.9287 4.00069 12.3104 4.25741C11.6436 4.53446 10.5965 4.47026 9.58536 4.40767C7.9873 4.31222 6.33597 4.2073 5.27321 5.27167C4.21046 6.33604 4.31061 7.98576 4.40921 9.58382C4.47026 10.5965 4.53446 11.6421 4.25895 12.3088C4.00223 12.9271 3.24 13.5939 2.50278 14.2387C1.33041 15.264 0 16.4285 0 18C0 19.5714 1.33041 20.736 2.50124 21.7596C3.23846 22.4045 4.00069 23.0713 4.25741 23.6895C4.53446 24.3563 4.47026 25.4035 4.40767 26.4146C4.31061 28.0126 4.20892 29.6624 5.27167 30.7267C6.33604 31.7911 7.9873 31.6878 9.58382 31.5907C10.5949 31.5281 11.6421 31.4639 12.3088 31.741C12.9271 31.9977 13.5939 32.7599 14.2387 33.4971C15.2639 34.6695 16.4285 35.9999 18 35.9999C19.5715 35.9999 20.736 34.6695 21.7596 33.4987C22.4045 32.7615 23.0713 31.9992 23.6895 31.7425C24.3563 31.467 25.4019 31.5297 26.4146 31.5923C28.0111 31.6877 29.664 31.791 30.7267 30.7283C31.7895 29.6639 31.6893 28.0142 31.5907 26.4161C31.5297 25.4034 31.4655 24.3579 31.741 23.6911C31.9977 23.0728 32.7599 22.406 33.4971 21.7612C34.6695 20.736 35.9999 19.5715 35.9999 18C35.9999 16.4285 34.6695 15.264 33.4988 14.2404ZM32.4657 20.5842C31.5939 21.348 30.6908 22.1369 30.2948 23.0932C29.88 24.0934 29.9552 25.3236 30.0287 26.5132C30.1053 27.7638 30.1836 29.0567 29.6202 29.6217C29.0567 30.1867 27.7607 30.1085 26.5116 30.0302C25.3221 29.9582 24.0918 29.8815 23.0917 30.2963C22.1353 30.6923 21.3464 31.5939 20.5826 32.4673C19.7374 33.4346 18.8609 34.4347 18 34.4347C17.1392 34.4347 16.2626 33.4346 15.4174 32.4673C14.6536 31.5954 13.8647 30.6923 12.9084 30.2963C12.298 30.0428 11.603 29.9723 10.883 29.9723C10.4229 29.9723 9.95177 30.0005 9.4869 30.0287C8.23785 30.1053 6.9434 30.1852 6.37838 29.6202C5.81336 29.0551 5.89319 27.7622 5.96986 26.5116C6.04345 25.3221 6.11858 24.0918 5.70375 23.0917C5.30777 22.1353 4.40621 21.3464 3.53282 20.5826C2.56551 19.7374 1.56534 18.8609 1.56534 18C1.56534 17.1392 2.56551 16.2626 3.53436 15.4159C4.40621 14.652 5.30931 13.8632 5.70529 12.9069C6.12004 11.9067 6.04491 10.6764 5.9714 9.4869C5.89473 8.23631 5.81644 6.9434 6.37992 6.37838C6.94494 5.81336 8.24255 5.89473 9.48844 5.96986C10.6811 6.04499 11.9099 6.11858 12.9084 5.70375C13.8648 5.30777 14.6537 4.40621 15.4174 3.53282C16.2626 2.56551 17.1392 1.56534 18 1.56534C18.8609 1.56534 19.7374 2.56551 20.5842 3.53436C21.348 4.40621 22.1369 5.30931 23.0932 5.70529C24.0934 6.12004 25.3221 6.04653 26.5132 5.9714C27.7622 5.89473 29.0582 5.81644 29.6217 6.37992C30.1867 6.94494 30.1069 8.23786 30.0302 9.48844C29.9566 10.678 29.8815 11.9082 30.2963 12.9084C30.6923 13.8648 31.5939 14.6537 32.4673 15.4174C33.4346 16.2626 34.4347 17.1392 34.4347 18C34.4347 18.8609 33.4346 19.7374 32.4657 20.5842Z" fill="#7070FF"/>
</svg>
