<svg width="25" height="23" viewBox="0 0 25 23" fill="none" xmlns="http://www.w3.org/2000/svg">
<path fill-rule="evenodd" clip-rule="evenodd" d="M12.4993 5.25957C12.9822 5.25957 13.3736 5.65102 13.3736 6.13389V11.3798H18.6195C19.1024 11.3798 19.4939 11.7712 19.4939 12.2541C19.4939 12.737 19.1024 13.1284 18.6195 13.1284H12.4993C12.0164 13.1284 11.625 12.737 11.625 12.2541V6.13389C11.625 5.65102 12.0164 5.25957 12.4993 5.25957Z" fill="#FF3636"/>
<path fill-rule="evenodd" clip-rule="evenodd" d="M12.4996 3.51092C7.67091 3.51092 3.75645 7.42538 3.75645 12.2541C3.75645 17.0828 7.67091 20.9973 12.4996 20.9973C17.3284 20.9973 21.2428 17.0828 21.2428 12.2541C21.2428 7.42538 17.3284 3.51092 12.4996 3.51092ZM2.00781 12.2541C2.00781 6.45963 6.70516 1.76228 12.4996 1.76228C18.2941 1.76228 22.9915 6.45963 22.9915 12.2541C22.9915 18.0486 18.2941 22.7459 12.4996 22.7459C6.70516 22.7459 2.00781 18.0486 2.00781 12.2541Z" fill="#FF3636"/>
<path fill-rule="evenodd" clip-rule="evenodd" d="M19.303 0.510156C19.6444 0.168714 20.198 0.168713 20.5394 0.510156L24.2444 4.21508C24.5858 4.55652 24.5858 5.11011 24.2444 5.45155C23.9029 5.793 23.3493 5.793 23.0079 5.45155L19.303 1.74663C18.9615 1.40519 18.9615 0.851599 19.303 0.510156Z" fill="#FF3636"/>
<path fill-rule="evenodd" clip-rule="evenodd" d="M5.69748 0.510156C6.03892 0.851599 6.03892 1.40519 5.69748 1.74663L1.99255 5.45155C1.65111 5.793 1.09752 5.793 0.756082 5.45155C0.414639 5.11011 0.414639 4.55652 0.756082 4.21508L4.46101 0.510156C4.80245 0.168713 5.35604 0.168713 5.69748 0.510156Z" fill="#FF3636"/>
</svg>
