<svg width="27" height="31" viewBox="0 0 27 31" fill="none" xmlns="http://www.w3.org/2000/svg">
<path d="M0.758986 7.98731C0.775036 7.15066 0.790137 6.35728 0.790137 5.58941C0.790137 5.12822 1.16403 4.75433 1.62522 4.75433C6.32138 4.75433 9.91947 3.40132 12.9171 0.486474L12.9171 0.486463C13.2412 0.171229 13.7571 0.171129 14.0814 0.486462L14.0814 0.486483C17.0793 3.40132 20.678 4.75433 25.3744 4.75433C25.8357 4.75433 26.2095 5.1282 26.2095 5.58941C26.2095 6.34874 26.2244 7.13292 26.2401 7.95926L26.2407 7.98669C26.3152 11.889 26.3995 16.4553 24.8644 20.6071C23.3368 24.7388 20.1974 28.4771 13.7726 30.704L13.7725 30.704C13.6841 30.7347 13.5916 30.7501 13.4992 30.7501C13.4068 30.7501 13.3144 30.7347 13.2257 30.704L13.2257 30.704C6.80143 28.4772 3.6624 24.739 2.13494 20.6074C0.600061 16.4557 0.684473 11.8895 0.758986 7.98731ZM0.758986 7.98731L0.509032 7.98251L0.758986 7.98731ZM13.414 28.9985L13.4993 29.0295L13.5847 28.9985C19.2206 26.9512 22.0205 23.6707 23.3785 19.8969C24.726 16.1525 24.6456 11.9398 24.5713 8.04073L24.5708 8.0184C24.5619 7.54865 24.5532 7.09419 24.5471 6.64866L24.5439 6.41225L24.3077 6.40228C20.0118 6.22111 16.5917 4.92196 13.6635 2.37135L13.4993 2.22832L13.3351 2.37136C10.4072 4.92196 6.98769 6.22097 2.69209 6.40228L2.45587 6.41226L2.45265 6.64866C2.44659 7.09433 2.43792 7.54909 2.42895 8.01912L2.42852 8.04141C2.35409 11.9404 2.27368 16.1529 3.62098 19.8972C4.97885 23.6709 7.77849 26.9513 13.414 28.9985Z" fill="#00836F" stroke="#00836F" stroke-width="0.5"/>
<path d="M11.9992 17.321L11.8224 17.1442L9.58763 14.9094C9.26149 14.5834 8.73271 14.5835 8.40674 14.9094C8.40673 14.9094 8.40672 14.9094 8.40671 14.9094M11.9992 17.321L12.7664 19.2693C12.5546 19.4811 12.2768 19.587 11.9992 19.587C11.7216 19.587 11.4438 19.4811 11.232 19.2693L8.22993 16.2672C7.80617 15.8435 7.80617 15.1565 8.22993 14.7326L8.40671 14.9094M11.9992 17.321L12.176 17.1443L17.4131 11.9074L17.2365 11.7307L17.4132 11.9074C17.7393 11.5813 18.268 11.5814 18.594 11.9075L18.5941 11.9075C18.9201 12.2335 18.9202 12.7622 18.5939 13.0884L18.5939 13.0884L12.5897 19.0925L12.7488 19.2516L12.5897 19.0925C12.4266 19.2555 12.2133 19.337 11.9992 19.337C11.7851 19.337 11.5718 19.2555 11.4088 19.0925L8.40671 16.0905C8.0806 15.7644 8.08055 15.2357 8.40671 14.9094M11.9992 17.321L8.40671 14.9094" fill="#00836F" stroke="#00836F" stroke-width="0.5"/>
</svg>
