<svg width="32" height="36" viewBox="0 0 32 36" fill="none" xmlns="http://www.w3.org/2000/svg">
<path d="M1.16379 9.27487C1.18243 8.30321 1.19996 7.38225 1.19996 6.49099C1.19996 5.93315 1.65222 5.48089 2.21006 5.48089C7.65464 5.48089 11.8225 3.91278 15.2951 0.53609L15.2951 0.536078C15.6872 0.154784 16.3112 0.15466 16.7034 0.536077L16.7034 0.536099C20.1763 3.91279 24.3449 5.48089 29.7898 5.48089C30.3478 5.48089 30.7999 5.93313 30.7999 6.49099C30.7999 7.37237 30.8172 8.28267 30.8354 9.2424L30.836 9.27416C30.9225 13.8046 31.0211 19.1151 29.2354 23.9448C27.457 28.7545 23.8022 33.1045 16.3299 35.6944L16.3298 35.6944C16.2228 35.7316 16.1109 35.7502 15.9992 35.7502C15.8874 35.7502 15.7757 35.7316 15.6684 35.6944L15.5865 35.9306L15.6684 35.6944C8.19675 33.1046 4.54225 28.7547 2.76417 23.9452C0.978664 19.1156 1.07729 13.8052 1.16379 9.27487ZM1.16379 9.27487L0.91384 9.27008M1.16379 9.27487L0.91384 9.27008M0.91384 9.27008C0.93249 8.29796 0.949963 7.37944 0.949963 6.49099C0.949963 5.79508 1.51415 5.23089 2.21006 5.23089C7.59871 5.23089 11.7011 3.68216 15.1208 0.356856L0.91384 9.27008ZM15.914 33.6378L15.9993 33.6688L16.0847 33.6378C22.6189 31.2643 25.8612 27.4632 27.434 23.0925C28.9963 18.7511 28.9031 13.8652 28.8167 9.33465L28.8163 9.31252C28.8058 8.76702 28.7958 8.23915 28.7887 7.72163L28.7855 7.48522L28.5493 7.47526C23.5524 7.26452 19.5716 5.75292 16.1635 2.7843L15.9993 2.64126L15.8351 2.7843C12.4273 5.75293 8.44729 7.26435 3.4507 7.47526L3.21448 7.48523L3.21127 7.72163C3.20422 8.23932 3.19415 8.76753 3.18373 9.31336L3.18331 9.33545C3.09683 13.8659 3.00357 18.7516 4.56565 23.0928C6.13829 27.4634 9.38026 31.2643 15.914 33.6378Z" fill="#F05D31" stroke="#FFAA93" stroke-width="0.5"/>
<path d="M14.1156 19.8457L14.257 19.9871L14.3985 19.8457L20.4803 13.7641L20.3389 13.6227L20.4803 13.7641C20.8943 13.3502 21.5656 13.3503 21.9794 13.7643L21.9795 13.7643C22.3934 14.1781 22.3935 14.8494 21.9793 15.2634L21.9793 15.2634L15.0066 22.2359L15.148 22.3773L15.0066 22.2359C14.7997 22.4428 14.5286 22.5463 14.257 22.5463C13.9855 22.5463 13.7144 22.4428 13.5075 22.2359L10.0212 18.7497C9.60725 18.3357 9.60722 17.6646 10.0213 17.2504C10.4351 16.8366 11.1063 16.8365 11.5203 17.2504C11.5203 17.2504 11.5204 17.2504 11.5204 17.2504L14.1156 19.8457Z" fill="#F05D31" stroke="#FFAA93" stroke-width="0.4"/>
</svg>
