<svg width="36" height="36" viewBox="0 0 36 36" fill="none" xmlns="http://www.w3.org/2000/svg">
<path d="M18.6182 8.60437C13.8154 8.60437 9.90796 12.5122 9.90796 17.3157C9.90796 22.1177 13.8154 26.0245 18.6182 26.0245C23.4211 26.0245 27.3285 22.1177 27.3285 17.3157C27.3285 12.5122 23.4211 8.60437 18.6182 8.60437ZM18.6182 24.5245C14.6425 24.5245 11.408 21.2907 11.408 17.3157C11.408 13.3393 14.6425 10.1044 18.6182 10.1044C22.594 10.1044 25.8285 13.3394 25.8285 17.3157C25.8285 21.2907 22.594 24.5245 18.6182 24.5245Z" fill="#9668FF"/>
<path d="M35.3154 14.8602C34.9586 14.3997 34.2814 13.8523 33.0717 13.8309L32.8618 13.7913C32.5223 12.5553 32.0282 11.3755 31.3873 10.2731L31.8149 9.8465C32.5025 9.15936 32.8813 8.24578 32.8814 7.27401C32.8815 6.30246 32.5031 5.38874 31.8158 4.70136L31.2986 4.18387C29.8807 2.76697 27.5737 2.76832 26.1566 4.18544L25.6504 4.69034C24.5632 4.09432 23.4164 3.64102 22.23 3.33682L22.1695 2.94149C22.152 1.72357 21.6021 1.04257 21.1396 0.684449C20.553 0.23025 19.7474 0 18.7451 0H18.016C17.0137 0 16.2081 0.23025 15.6215 0.684449C15.1614 1.04062 14.6149 1.71615 14.592 2.92192L14.4865 3.43942C13.35 3.75944 12.2553 4.21492 11.2206 4.79924L10.6056 4.18604C9.18741 2.76839 6.87981 2.76824 5.46276 4.18484L4.94564 4.69934C3.52754 6.11984 3.52777 8.42878 4.94579 9.8459L5.56986 10.4707C5.00001 11.4835 4.55272 12.5604 4.23472 13.6837L3.03232 13.8305C1.80877 13.8443 1.10857 14.388 0.735448 14.8452C0.247499 15.4431 0 16.2536 0 17.2541V17.985C0 18.9854 0.247424 19.7958 0.735523 20.3937C1.10797 20.85 1.80645 21.3927 3.02587 21.4084L4.16774 21.5671C4.47119 22.7058 4.91249 23.807 5.48511 24.8531L4.94586 25.3932C3.52837 26.8124 3.52822 29.1202 4.94519 30.5372L5.46269 31.0556C6.17129 31.7631 7.10196 32.1168 8.03323 32.1167C8.96451 32.1167 9.8963 31.7627 10.606 31.0549L11.0671 30.5934C12.153 31.2243 13.3188 31.7147 14.5437 32.057L14.5913 32.942C14.5974 34.1817 15.1461 34.8892 15.6067 35.2649C16.2048 35.7526 17.0154 36 18.0162 36H18.7452C19.746 36 20.5566 35.7526 21.1547 35.2649C21.6144 34.8899 22.1617 34.1846 22.17 32.9495L22.2313 32.109C23.4946 31.7786 24.7298 31.2919 25.8017 30.7011L26.1566 31.0558C26.8655 31.7633 27.7966 32.117 28.7279 32.117C29.6591 32.117 30.5907 31.7631 31.2999 31.0553L31.8158 30.5397C33.2326 29.1205 33.2325 26.8118 31.8149 25.3926L31.4735 25.0516C32.1158 23.9191 32.6026 22.7166 32.9261 21.4651L33.1156 21.4072C34.2978 21.3736 34.9631 20.8338 35.3155 20.3788C35.7697 19.7925 36 18.987 36 17.9851V17.2542C35.9999 16.252 35.7697 15.4466 35.3154 14.8602ZM34.4999 17.985C34.4999 19.9088 33.4475 19.9088 32.9981 19.9088C32.924 19.9088 32.8501 19.9197 32.7791 19.9414L32.0799 20.1549C32.0737 20.1568 32.068 20.1594 32.0618 20.1615C32.0504 20.1653 32.039 20.1694 32.0278 20.1738C32.0159 20.1785 32.0041 20.1831 31.9925 20.1883C31.9831 20.1926 31.9738 20.1972 31.9646 20.2018C31.9521 20.208 31.9397 20.2142 31.9277 20.2211C31.9199 20.2255 31.9124 20.2304 31.9046 20.2352C31.8921 20.243 31.8797 20.2506 31.8677 20.259C31.8606 20.2639 31.8539 20.2694 31.8471 20.2746C31.8354 20.2835 31.8236 20.2922 31.8125 20.3017C31.8049 20.3082 31.7978 20.3152 31.7905 20.322C31.7807 20.331 31.7708 20.3397 31.7616 20.3492C31.7521 20.3589 31.7433 20.3695 31.7343 20.3798C31.7279 20.3871 31.7212 20.394 31.7152 20.4015C31.7036 20.4158 31.6929 20.431 31.6823 20.4463C31.6794 20.4505 31.6762 20.4544 31.6733 20.4587C31.6634 20.4738 31.6544 20.4897 31.6454 20.5057C31.6426 20.5107 31.6394 20.5154 31.6367 20.5205C31.6316 20.53 31.6274 20.5401 31.6227 20.5499C31.617 20.562 31.6108 20.574 31.6057 20.5863C31.6056 20.5866 31.6055 20.5868 31.6054 20.587L29.8379 24.8841C29.8297 24.9041 29.8226 24.9242 29.8162 24.9447C29.8151 24.9479 29.8139 24.9509 29.813 24.9541C29.809 24.9672 29.8061 24.9805 29.8028 24.9938C29.8004 25.0043 29.7973 25.0147 29.7952 25.0252C29.7935 25.0334 29.7927 25.0418 29.7914 25.05C29.7888 25.0656 29.7863 25.0811 29.7846 25.0967C29.784 25.1031 29.7839 25.1096 29.7835 25.1159C29.7822 25.1332 29.7811 25.1505 29.7811 25.1677C29.7811 25.175 29.7817 25.1823 29.7818 25.1897C29.7823 25.2057 29.7827 25.2216 29.7842 25.2374C29.7851 25.2471 29.7866 25.2566 29.7878 25.2663C29.7895 25.2796 29.7911 25.2929 29.7935 25.3059C29.7956 25.3175 29.7986 25.329 29.8012 25.3405C29.8037 25.3514 29.8061 25.3623 29.8092 25.3732C29.8127 25.3858 29.8169 25.3982 29.8211 25.4107C29.8244 25.4201 29.8275 25.4297 29.8311 25.439C29.836 25.4517 29.8414 25.4641 29.8469 25.4765C29.851 25.4856 29.8551 25.4948 29.8596 25.5038C29.8654 25.5154 29.8715 25.5269 29.878 25.5383C29.8835 25.5482 29.8892 25.5578 29.8952 25.5674C29.9014 25.5773 29.9078 25.5872 29.9146 25.597C29.9222 25.608 29.9301 25.6186 29.9383 25.6292C29.9445 25.6372 29.9507 25.6451 29.9572 25.6529C29.9672 25.6649 29.9779 25.6764 29.9888 25.6878C29.993 25.6922 29.9966 25.6969 30.0009 25.7012L30.7541 26.4534C31.5873 27.2876 31.5872 28.6454 30.7546 29.4795L30.2398 29.9941C29.4061 30.8261 28.0496 30.826 27.2163 29.9945L26.4536 29.2322C26.4501 29.2288 26.4463 29.2259 26.4428 29.2225C26.4311 29.2112 26.4191 29.2003 26.4067 29.1898C26.3996 29.1839 26.3926 29.1781 26.3853 29.1724C26.3742 29.1636 26.3627 29.1553 26.351 29.1472C26.3422 29.141 26.3333 29.1349 26.3243 29.1292C26.314 29.1227 26.3035 29.1167 26.2929 29.1107C26.2823 29.1047 26.272 29.0987 26.2612 29.0934C26.2514 29.0885 26.2412 29.084 26.2313 29.0795C26.2198 29.0743 26.2084 29.069 26.1967 29.0645C26.186 29.0603 26.1752 29.0568 26.1644 29.0532C26.1533 29.0494 26.1422 29.0454 26.1309 29.0421C26.117 29.0381 26.1029 29.035 26.0888 29.0318C26.0805 29.03 26.0722 29.0276 26.0638 29.026C25.9718 29.0084 25.8759 29.0079 25.781 29.0264C25.7747 29.0276 25.7684 29.0294 25.7622 29.0309C25.7457 29.0345 25.7292 29.0381 25.7129 29.0429C25.6978 29.0474 25.6829 29.0529 25.6681 29.0582C25.661 29.0608 25.654 29.0627 25.647 29.0655L25.6436 29.0669C25.6422 29.0675 25.6407 29.0681 25.6392 29.0686L21.2348 30.8153C20.916 30.9418 20.7295 31.2643 20.7657 31.5938C20.765 31.6004 20.7638 31.6068 20.7633 31.6134L20.6718 32.8664C20.6705 32.8845 20.6699 32.9027 20.6699 32.921C20.6699 33.3115 20.6699 34.5001 18.745 34.5001H18.0159C16.0911 34.5001 16.0911 33.3115 16.0911 32.921C16.0911 32.9075 16.0907 32.8942 16.09 32.8808L16.0143 31.4723C15.9984 31.1771 15.8135 30.9318 15.5589 30.8232C15.5172 30.794 15.4724 30.7685 15.4239 30.7476L11.2485 28.9571C11.247 28.9564 11.2455 28.9559 11.244 28.9554C11.2297 28.9494 11.2152 28.9443 11.2006 28.9392C11.1919 28.9361 11.1832 28.9328 11.1745 28.9301C11.1625 28.9264 11.1503 28.9235 11.1382 28.9204C11.1265 28.9173 11.1148 28.9142 11.103 28.9118C11.0934 28.9099 11.0837 28.9085 11.074 28.9069C11.0597 28.9046 11.0454 28.9022 11.0311 28.9007C11.0228 28.8999 11.0145 28.8995 11.0062 28.8989C10.9907 28.8978 10.9753 28.8969 10.9599 28.8968C10.9516 28.8968 10.9434 28.8971 10.9351 28.8973C10.9199 28.8977 10.9048 28.8983 10.8899 28.8995C10.8806 28.9003 10.8714 28.9014 10.8622 28.9026C10.8485 28.9042 10.8349 28.9061 10.8214 28.9085C10.8107 28.9103 10.8003 28.9127 10.7897 28.915C10.7778 28.9177 10.766 28.9205 10.7542 28.9237C10.7427 28.9268 10.7313 28.9304 10.72 28.9341C10.7093 28.9376 10.6988 28.9413 10.6883 28.9451C10.6766 28.9496 10.665 28.9543 10.6535 28.9593C10.6433 28.9637 10.6333 28.9685 10.6233 28.9734C10.6123 28.9787 10.6014 28.9844 10.5907 28.9903C10.5799 28.9962 10.5694 29.0026 10.5589 29.009C10.5496 29.0148 10.5402 29.0206 10.531 29.0268C10.5188 29.0351 10.5071 29.044 10.4953 29.0531C10.4883 29.0585 10.4812 29.0637 10.4743 29.0694C10.46 29.0813 10.4464 29.0939 10.433 29.1068C10.4295 29.1101 10.4257 29.1131 10.4223 29.1165L10.417 29.1217C10.4162 29.1226 10.4154 29.1233 10.4145 29.1242L9.54553 29.9942C8.71161 30.8262 7.35546 30.8262 6.52326 29.9954L6.00614 29.4774C5.17326 28.6445 5.17364 27.2881 6.00711 26.4536L6.95128 25.508C6.95503 25.5043 6.95811 25.5002 6.96178 25.4965C6.97243 25.4853 6.98279 25.4739 6.99268 25.4622C6.99914 25.4546 7.00543 25.4469 7.01151 25.439C7.01976 25.4285 7.02764 25.4177 7.03536 25.4066C7.04196 25.3971 7.04848 25.3876 7.05463 25.3779C7.06071 25.3683 7.06626 25.3585 7.07188 25.3487C7.07826 25.3375 7.08463 25.3262 7.09048 25.3147C7.09499 25.3058 7.09896 25.2967 7.10301 25.2876C7.10863 25.2752 7.11434 25.2627 7.11936 25.25C7.12288 25.2408 7.12581 25.2315 7.12903 25.2222C7.13338 25.2095 7.13796 25.1969 7.14163 25.1839C7.14486 25.1728 7.14718 25.1614 7.14988 25.1501C7.15251 25.139 7.15551 25.1279 7.15761 25.1166C7.16076 25.1002 7.16271 25.0836 7.16473 25.067C7.16548 25.0606 7.16668 25.0544 7.16728 25.048C7.17388 24.9778 7.17073 24.9059 7.15686 24.8348C7.15439 24.8221 7.15078 24.8097 7.14771 24.7972C7.14516 24.7868 7.14314 24.7766 7.14013 24.7664C7.13278 24.7412 7.12408 24.7166 7.11403 24.6922L5.46419 20.5928C5.33781 20.2787 5.02094 20.0948 4.69596 20.1266L3.18352 19.9164C3.14932 19.9116 3.11482 19.9092 3.08032 19.9092C2.68949 19.9092 1.50015 19.9092 1.50015 17.9855V17.2545C1.50015 15.3308 2.68949 15.3308 3.08032 15.3308C3.11069 15.3308 3.14099 15.329 3.17114 15.3253L4.92036 15.1119C4.92396 15.1114 4.92741 15.1104 4.93101 15.1101C4.93911 15.1089 4.94706 15.1073 4.95509 15.1059C4.98134 15.1014 5.00706 15.0957 5.03219 15.0886C5.03894 15.0867 5.04576 15.085 5.05251 15.0829C5.08431 15.073 5.11529 15.0615 5.14491 15.0477C5.14694 15.0467 5.14889 15.0456 5.15091 15.0446C5.17889 15.0313 5.20566 15.0162 5.23154 14.9997C5.23694 14.9962 5.24241 14.9928 5.24774 14.9892C5.27466 14.9711 5.30054 14.9516 5.32484 14.9303C5.32844 14.9271 5.33174 14.9235 5.33526 14.9202C5.35581 14.9014 5.37524 14.8814 5.39354 14.8603C5.39916 14.8539 5.40486 14.8476 5.41026 14.8409C5.43036 14.8162 5.44911 14.7904 5.46599 14.7634C5.46914 14.7584 5.47191 14.7529 5.47491 14.7478C5.49051 14.7214 5.50454 14.694 5.51684 14.6658C5.51819 14.6627 5.52006 14.66 5.52134 14.6569L7.20253 10.6413C7.20276 10.6408 7.20283 10.6402 7.20306 10.6397C7.20958 10.624 7.21506 10.6078 7.22053 10.5917C7.22293 10.5845 7.22586 10.5775 7.22803 10.5703C7.23171 10.5582 7.23441 10.5459 7.23748 10.5337C7.24041 10.5222 7.24363 10.5106 7.24596 10.499C7.24768 10.4903 7.24873 10.4815 7.25016 10.4727C7.25263 10.4576 7.25518 10.4425 7.25668 10.4273C7.25743 10.42 7.25758 10.4128 7.25811 10.4056C7.25931 10.3891 7.26043 10.3726 7.26051 10.3563C7.26058 10.3485 7.26006 10.3408 7.25983 10.333C7.25946 10.3174 7.25901 10.3018 7.25758 10.2863C7.25676 10.2769 7.25533 10.2675 7.25413 10.258C7.25241 10.2445 7.25076 10.2311 7.24836 10.2178C7.24633 10.2065 7.24363 10.1953 7.24108 10.1841C7.23846 10.1729 7.23598 10.1617 7.23291 10.1506C7.22946 10.1383 7.22541 10.1261 7.22136 10.1139C7.21806 10.1041 7.21483 10.0942 7.21108 10.0846C7.20636 10.0721 7.20118 10.06 7.19578 10.0478C7.19158 10.0383 7.18731 10.0289 7.18266 10.0195C7.17703 10.0081 7.17103 9.9968 7.16473 9.9857C7.15903 9.9755 7.15318 9.96553 7.14703 9.9557C7.14096 9.94595 7.13473 9.93628 7.12813 9.92675C7.12033 9.91543 7.11208 9.9044 7.10368 9.89345C7.09776 9.8858 7.09183 9.87815 7.08561 9.87058C7.07511 9.85813 7.06401 9.84613 7.05276 9.83428C7.04879 9.83008 7.04534 9.82565 7.04129 9.82153L6.00666 8.78578C5.17289 7.95261 5.17319 6.59504 6.00554 5.76126L6.52206 5.24721C7.35568 4.41412 8.71183 4.41404 9.54583 5.24796L10.5726 6.27164C10.5914 6.29039 10.611 6.30779 10.6312 6.32414C10.6343 6.32661 10.6377 6.32879 10.6409 6.33126C10.6625 6.34821 10.6849 6.36359 10.7077 6.37776C10.7144 6.38189 10.7212 6.38571 10.7281 6.38969C10.7503 6.40251 10.7731 6.41421 10.7964 6.42456C10.8013 6.42674 10.806 6.42921 10.8109 6.43131C10.8394 6.44324 10.8683 6.45351 10.8977 6.46184C10.9031 6.46334 10.9087 6.46431 10.914 6.46574C10.9378 6.47189 10.9618 6.47684 10.9861 6.48059C10.9952 6.48209 11.0044 6.48344 11.0136 6.48456C11.0395 6.48764 11.0654 6.48951 11.0914 6.48989C11.0952 6.48996 11.0988 6.49064 11.1025 6.49064C11.1617 6.49064 11.2213 6.48269 11.2803 6.46821C11.2934 6.46499 11.3066 6.46214 11.3195 6.45824C11.3257 6.45644 11.3317 6.45381 11.3379 6.45179C11.3558 6.44586 11.3737 6.43971 11.3911 6.43244C11.3918 6.43214 11.3926 6.43191 11.3933 6.43161L15.4197 4.73631C15.4226 4.73504 15.4254 4.73346 15.4283 4.73219C15.4416 4.72634 15.4545 4.72004 15.4673 4.71344C15.4752 4.70947 15.4831 4.70571 15.4908 4.70151C15.5026 4.69499 15.5139 4.68779 15.5253 4.68074C15.5332 4.67587 15.5415 4.67122 15.5492 4.66604C15.5667 4.65419 15.5838 4.64151 15.6003 4.62817C15.6086 4.62149 15.6162 4.61414 15.6242 4.60724C15.633 4.59944 15.642 4.59179 15.6505 4.58362C15.6575 4.57679 15.664 4.56959 15.6708 4.56261C15.6797 4.55332 15.6885 4.54409 15.6969 4.53427C15.7026 4.52774 15.7078 4.52092 15.7132 4.51417C15.722 4.50322 15.7306 4.49219 15.7389 4.48079C15.7434 4.47442 15.7476 4.46797 15.7519 4.46144C15.7602 4.44922 15.7681 4.43677 15.7756 4.42394C15.7794 4.41742 15.783 4.41082 15.7866 4.40422C15.7935 4.39139 15.8003 4.37834 15.8065 4.36507C15.81 4.35757 15.8134 4.34999 15.8167 4.34234C15.822 4.33004 15.8271 4.31759 15.8317 4.30492C15.8352 4.29562 15.8384 4.28624 15.8415 4.27672C15.8451 4.26577 15.8484 4.25452 15.8514 4.24319C15.8545 4.23187 15.8574 4.22047 15.86 4.20892C15.861 4.20419 15.8625 4.19969 15.8635 4.19489L16.0762 3.15127C16.0863 3.10199 16.0914 3.05182 16.0914 3.00149C16.0914 2.55232 16.0914 1.50022 18.0162 1.50022H18.7453C20.67 1.5 20.67 2.55202 20.67 3.00127C20.67 3.03922 20.6728 3.07709 20.6786 3.11467L20.8117 3.98512C20.8368 4.14974 20.9143 4.29292 21.0239 4.40212C21.1044 4.51417 21.2166 4.60514 21.3534 4.65997L25.4885 6.31926C25.4906 6.32016 25.4929 6.32099 25.495 6.32189L25.4952 6.32196C25.4958 6.32219 25.4965 6.32241 25.4971 6.32264C25.5188 6.33126 25.5409 6.33899 25.5632 6.34551C25.5722 6.34821 25.5813 6.34994 25.5904 6.35219C25.6042 6.35571 25.6179 6.35961 25.6319 6.36231C25.6545 6.36674 25.6771 6.36989 25.6997 6.37214C25.7003 6.37221 25.701 6.37236 25.7016 6.37244C25.7258 6.37476 25.7501 6.37611 25.7741 6.37611C25.7765 6.37611 25.7789 6.37566 25.7812 6.37559C25.8093 6.37536 25.8374 6.37319 25.8653 6.36981C25.8737 6.36876 25.8821 6.36756 25.8905 6.36621C25.917 6.36201 25.9434 6.35661 25.9696 6.34956C25.9731 6.34859 25.9767 6.34799 25.9802 6.34701C26.0103 6.33846 26.0399 6.32774 26.069 6.31529C26.0741 6.31311 26.0791 6.31056 26.0841 6.30831C26.1078 6.29751 26.1311 6.28544 26.1538 6.27216C26.1599 6.26856 26.1661 6.26511 26.1722 6.26129C26.1983 6.24494 26.2238 6.22739 26.2481 6.20751C26.251 6.20519 26.2535 6.20241 26.2564 6.19994C26.2727 6.18629 26.2888 6.17226 26.3042 6.15696L27.2168 5.24676C28.0499 4.41344 29.4054 4.41247 30.2381 5.24451L30.7552 5.76179C31.1592 6.16589 31.3816 6.70289 31.3816 7.27378C31.3816 7.84476 31.159 8.38161 30.7553 8.78496L29.9187 9.61963C29.9174 9.6209 29.9162 9.62218 29.9148 9.62353L29.9103 9.62795C29.9074 9.63088 29.9049 9.63418 29.902 9.6371C29.8885 9.65105 29.8754 9.66523 29.8631 9.68C29.8575 9.68675 29.8525 9.69373 29.8472 9.70048C29.838 9.71233 29.829 9.72418 29.8206 9.73648C29.8143 9.74578 29.8085 9.75523 29.8026 9.76468C29.7963 9.77503 29.79 9.7853 29.7842 9.79588C29.7781 9.80683 29.7725 9.818 29.767 9.82918C29.7622 9.83893 29.7577 9.8486 29.7533 9.8585C29.7482 9.87035 29.7433 9.88228 29.7388 9.89443C29.735 9.90448 29.7314 9.91453 29.7281 9.92465C29.7242 9.9365 29.7206 9.94835 29.7172 9.96043C29.7141 9.97153 29.7115 9.98285 29.7089 9.99418C29.7065 10.0052 29.7041 10.0164 29.702 10.0275C29.6997 10.0404 29.698 10.0534 29.6963 10.0663C29.6951 10.0762 29.6939 10.086 29.693 10.0959C29.6918 10.1103 29.6913 10.1248 29.6909 10.1392C29.6906 10.1481 29.6903 10.1569 29.6903 10.1658C29.6905 10.1807 29.6914 10.1957 29.6924 10.2109C29.693 10.2195 29.6934 10.2282 29.6943 10.2367C29.6958 10.2509 29.6981 10.265 29.7004 10.2791C29.702 10.2889 29.7033 10.2987 29.7052 10.3084C29.7077 10.3203 29.7108 10.3321 29.7138 10.344C29.7169 10.3559 29.7197 10.3678 29.7233 10.3796C29.7262 10.3888 29.7297 10.398 29.7329 10.4071C29.7378 10.4211 29.7427 10.4352 29.7485 10.449C29.7491 10.4505 29.7496 10.4521 29.7502 10.4537L31.5477 14.6616C31.5947 14.7716 31.6656 14.8642 31.7514 14.9373C31.8587 15.0642 32.0087 15.1568 32.1848 15.19L32.8591 15.3173C32.9049 15.326 32.9515 15.3303 32.9981 15.3303C33.4475 15.3303 34.4999 15.3303 34.4999 17.2541V17.985Z" fill="#9668FF"/>
</svg>
