<svg width="33" height="33" viewBox="0 0 33 33" fill="none" xmlns="http://www.w3.org/2000/svg">
<path d="M19.7775 25.7525L20.1344 25.75C21.7469 25.75 22.5939 26.4183 23.6389 28.0019L24.1592 28.8057C24.5649 29.4063 24.8181 29.6579 25.137 29.7893C25.7088 30.0249 26.1827 29.9091 27.923 29.0711L28.4559 28.8117C29.5443 28.2774 30.287 27.9715 31.1262 27.7617C31.6572 27.6289 32.1953 27.9518 32.328 28.4828C32.4608 29.0138 32.1379 29.5519 31.6069 29.6847C31.0853 29.8151 30.5855 30.0022 29.9317 30.3035L28.4006 31.04C26.3288 32.0184 25.6261 32.1347 24.3818 31.6219C23.5557 31.2815 23.086 30.789 22.3988 29.7381L22.1415 29.3364C21.3992 28.1667 21.001 27.7829 20.2914 27.7369L20.1344 27.7321C19.4099 27.7321 19.2666 27.8226 16.5127 29.8662C14.2105 31.5747 12.4547 32.3908 10.2219 32.3908C7.49987 32.3908 4.93498 31.8907 2.5349 30.891L6.34368 30.0105C7.591 30.276 8.88333 30.4087 10.2219 30.4087C11.9274 30.4087 13.3411 29.7516 15.3315 28.2745L16.8645 27.1435C18.5445 25.9224 18.9182 25.7711 19.7775 25.7525ZM28.0988 2.25772C30.3104 4.46929 30.3104 8.05492 28.0989 10.2665L26.7305 11.635C28.2528 13.4871 28.198 15.4499 26.7826 16.8694L22.817 20.835C22.4298 21.2219 21.8023 21.2216 21.4154 20.8343C21.0286 20.4471 21.0289 19.8196 21.4161 19.4328L25.379 15.4698C26.02 14.827 26.0941 14.0289 25.3262 13.0403L11.3265 27.0398C10.9324 27.4339 10.4356 27.7092 9.8926 27.8346L1.85726 29.6889C1.14361 29.8535 0.504027 29.214 0.668714 28.5003L2.52304 20.4649C2.64833 19.922 2.92368 19.4252 3.31768 19.0312L20.0901 2.25784C22.3016 0.0462645 25.8872 0.0462051 28.0988 2.25772ZM21.4918 3.65939L4.7193 20.4327C4.58797 20.564 4.49618 20.7296 4.45442 20.9106L2.95666 27.4009L9.4469 25.9032C9.6279 25.8614 9.79351 25.7696 9.92486 25.6383L26.6973 8.86498C28.1347 7.42745 28.1347 5.09683 26.6972 3.65933C25.2597 2.22188 22.9292 2.22192 21.4918 3.65939Z" fill="#EE5457"/>
</svg>
