<svg width="36" height="28" viewBox="0 0 36 28" fill="none" xmlns="http://www.w3.org/2000/svg">
<path fill-rule="evenodd" clip-rule="evenodd" d="M18 19.9927C19.8718 19.9927 21.4771 18.4145 21.4771 16.3576C21.4771 14.5488 20.429 12.3478 19.1557 10.4139C18.7574 9.80876 18.3577 9.26051 18 8.79641C17.6423 9.26051 17.2426 9.80876 16.8443 10.4139C15.571 12.3478 14.523 14.5488 14.523 16.3576C14.523 18.4145 16.1282 19.9927 18 19.9927ZM16.867 7.42297C15.3329 9.35943 12.7844 13.0708 12.7844 16.3576C12.7844 19.3254 15.1195 21.7313 18 21.7313C20.8805 21.7313 23.2156 19.3254 23.2156 16.3576C23.2156 13.0708 20.6671 9.35943 19.133 7.42297C18.4725 6.58917 18 6.08447 18 6.08447C18 6.08447 17.5276 6.58917 16.867 7.42297Z" fill="#8954D2"/>
<path fill-rule="evenodd" clip-rule="evenodd" d="M26.6052 5.30295C21.8527 0.550387 14.1473 0.550387 9.39472 5.30295L8.16532 4.07363C13.5968 -1.35788 22.4031 -1.35788 27.8346 4.07363C30.539 6.77801 31.8971 10.3209 31.9082 13.8643V13.867V17.025L34.7706 14.1626L36 15.3919L31.6537 19.7382L31.039 20.3529L30.4243 19.7382L26.0779 15.3919L27.3073 14.1626L30.1697 17.0249V13.8697V13.8683C30.1596 10.7659 28.9716 7.66927 26.6052 5.30295ZM9.39472 22.5135C14.1473 27.2661 21.8527 27.2661 26.6052 22.5135L27.8346 23.7429C22.4031 29.1744 13.5968 29.1744 8.16532 23.7429C5.45049 21.028 4.09244 17.4682 4.09173 13.911L4.09172 13.9109V10.791L1.22932 13.6534L0 12.4241L4.34633 8.07773L4.96099 7.46308L5.57565 8.07773L9.92202 12.4241L8.69262 13.6534L5.83026 10.791L5.83025 13.9107L5.83026 13.9109C5.83091 17.0259 7.01893 20.1378 9.39472 22.5135Z" fill="#8954D2"/>
</svg>
