<svg width="28" height="28" viewBox="0 0 28 28" fill="none" xmlns="http://www.w3.org/2000/svg">
<path d="M16.2404 7.88091L16.2402 7.88091L11.7402 7.89238C9.61773 7.89779 7.9 9.6199 7.9 11.7424V16.25C7.9 18.3763 9.6237 20.1 11.75 20.1H16.25C18.3763 20.1 20.1 18.3763 20.1 16.25V11.7309C20.1 9.60444 18.3761 7.8809 16.2404 7.88091ZM25.9 20.75V24.6979L21.351 20.149C21.0191 19.817 20.4809 19.817 20.149 20.149C19.817 20.4809 19.817 21.0191 20.149 21.351L24.6979 25.9H20.75C20.2806 25.9 19.9 26.2806 19.9 26.75C19.9 27.2194 20.2806 27.6 20.75 27.6H26.75C27.2194 27.6 27.6 27.2194 27.6 26.75V20.75C27.6 20.2806 27.2194 19.9 26.75 19.9C26.2806 19.9 25.9 20.2806 25.9 20.75ZM2.1 7.25V3.30208L6.64896 7.85104C6.98091 8.18299 7.51909 8.18299 7.85104 7.85104C8.18299 7.51909 8.18299 6.98091 7.85104 6.64896L3.30208 2.1H7.25C7.71944 2.1 8.1 1.71944 8.1 1.25C8.1 0.780558 7.71944 0.4 7.25 0.4H1.25C0.780558 0.4 0.4 0.780558 0.4 1.25V7.25C0.4 7.71944 0.780558 8.1 1.25 8.1C1.71944 8.1 2.1 7.71944 2.1 7.25ZM7.25 25.9H3.30208L7.85104 21.351C8.18299 21.0191 8.18299 20.4809 7.85104 20.149C7.51909 19.817 6.98091 19.817 6.64896 20.149L2.1 24.6979V20.75C2.1 20.2806 1.71944 19.9 1.25 19.9C0.780558 19.9 0.4 20.2806 0.4 20.75V26.75C0.4 27.2194 0.780558 27.6 1.25 27.6H7.25C7.71944 27.6 8.1 27.2194 8.1 26.75C8.1 26.2806 7.71944 25.9 7.25 25.9ZM20.75 2.1H24.6979L20.149 6.64896C19.817 6.98091 19.817 7.51909 20.149 7.85104C20.4809 8.18299 21.0191 8.18299 21.351 7.85104L25.9 3.30208V7.29669C25.9 7.76614 26.2806 8.14669 26.75 8.14669C27.2194 8.14669 27.6 7.76614 27.6 7.29669V1.25C27.6 0.780558 27.2194 0.4 26.75 0.4H20.75C20.2806 0.4 19.9 0.780558 19.9 1.25C19.9 1.71944 20.2806 2.1 20.75 2.1ZM9.6 16.25V11.7424C9.6 10.5571 10.5593 9.59539 11.7445 9.59237L16.25 9.5809C17.4374 9.5809 18.4 10.5435 18.4 11.7309V16.25C18.4 17.4374 17.4374 18.4 16.25 18.4H11.75C10.5626 18.4 9.6 17.4374 9.6 16.25Z" fill="#FB76CE" stroke="#FB76CE" stroke-width="0.2"/>
</svg>
