<svg width="33" height="29" viewBox="0 0 33 29" fill="none" xmlns="http://www.w3.org/2000/svg">
<path d="M30.0073 0.0026506C29.5979 0.0216936 29.2122 0.140712 28.8695 0.274013H28.8647C28.5172 0.412074 26.8652 1.10714 24.3563 2.15927C21.8474 3.21615 18.591 4.58725 15.3585 5.94882C8.90292 8.6672 2.55685 11.3427 2.55685 11.3427L2.63302 11.3142C2.63302 11.3142 2.19503 11.457 1.738 11.7712C1.50473 11.9235 1.24765 12.133 1.02389 12.4615C0.800138 12.79 0.619229 13.2946 0.68588 13.8136C0.795377 14.6943 1.36667 15.2227 1.77609 15.5131C2.19027 15.8083 2.58542 15.9464 2.58542 15.9464H2.59494L8.54587 17.9506C8.81247 18.8076 10.3597 23.8921 10.731 25.0632C10.95 25.763 11.1643 26.201 11.4309 26.5343C11.5594 26.7057 11.7118 26.8485 11.8927 26.9627C11.9641 27.0056 12.0402 27.0389 12.1164 27.0675C12.1402 27.0818 12.164 27.0865 12.1926 27.0913L12.1307 27.077C12.1497 27.0818 12.164 27.096 12.1783 27.1008C12.2259 27.1151 12.2592 27.1198 12.3211 27.1294C13.2638 27.415 14.0207 26.8294 14.0207 26.8294L14.0636 26.7961L17.577 23.5969L23.466 28.1148L23.5993 28.172C24.8276 28.7099 26.0702 28.41 26.7271 27.8816C27.3889 27.3484 27.646 26.6676 27.646 26.6676L27.6888 26.5581L32.2401 3.24472C32.3686 2.66867 32.4019 2.1307 32.2591 1.60702C32.1163 1.08334 31.7497 0.592983 31.307 0.331142C30.8595 0.06454 30.4167 -0.0163924 30.0073 0.0026506ZM29.8835 2.50204C29.8788 2.57821 29.893 2.56869 29.8597 2.71627V2.73056L25.3513 25.8011C25.3322 25.8344 25.2989 25.9058 25.2085 25.9773C25.1132 26.0534 25.0371 26.101 24.6419 25.9439L17.4389 20.4215L13.0876 24.3872L14.0017 18.5505C14.0017 18.5505 25.2846 8.03402 25.7702 7.58175C26.2558 7.12948 26.094 7.03427 26.094 7.03427C26.1273 6.48202 25.3608 6.8724 25.3608 6.8724L10.5216 16.0654L10.5168 16.0416L3.40426 13.6469V13.6422C3.3995 13.6422 3.38998 13.6374 3.38522 13.6374C3.38998 13.6374 3.42331 13.6231 3.42331 13.6231L3.46139 13.6041L3.49948 13.5898C3.49948 13.5898 9.85031 10.9143 16.3059 8.19589C19.5384 6.83432 22.7948 5.46322 25.2989 4.40634C27.8031 3.35421 29.655 2.58297 29.7597 2.54013C29.8597 2.50204 29.8121 2.50204 29.8835 2.50204Z" fill="#3379F1"/>
</svg>
