<svg width="20" height="40" viewBox="0 0 20 40" fill="none" xmlns="http://www.w3.org/2000/svg">
<path d="M16.152 22.404L16.152 22.5645L16.2736 22.6692L16.4313 22.805C18.2153 24.3994 19.3557 26.6051 19.6005 29.0186L19.6375 29.509L19.65 30.0044C19.6476 35.3319 15.3281 39.65 10 39.65C4.67045 39.65 0.35 35.3295 0.35 30C0.35 27.3713 1.40938 24.9183 3.22107 23.1314L3.57388 22.8005L3.72636 22.6692L3.84798 22.5645L3.848 22.404L3.85 6.50004V6.5C3.85 3.33958 6.23421 0.73553 9.30191 0.389152L9.65068 0.359881L10.0048 0.350002C13.2803 0.352512 15.9568 2.91587 16.14 6.14565L16.15 6.5046L16.152 22.404ZM6.16275 6.1847L6.16217 6.19178L6.16189 6.19888L6.15029 6.48594L6.15 6.48593L6.15 6.50006L6.14909 23.711L5.67643 24.0554C3.78835 25.4314 2.65 27.6194 2.65 30C2.65 34.0593 5.94071 37.35 10 37.35C14.0593 37.35 17.35 34.0593 17.35 30C17.35 27.769 16.3502 25.7069 14.6702 24.324L14.6703 24.3239L14.6621 24.3176L14.3335 24.0628L14.3336 24.0627L14.3253 24.0567L13.853 23.7123L13.85 6.5C13.85 6.49998 13.85 6.49996 13.85 6.49994C13.85 4.37367 12.1263 2.65 10 2.65C7.97984 2.65 6.32339 4.20567 6.16275 6.1847ZM11.15 13.5V13.5L11.1511 25.2293L11.1512 25.4861L11.3962 25.5632C13.2825 26.1561 14.65 27.9188 14.65 30C14.65 32.5681 12.5681 34.65 10 34.65C7.43188 34.65 5.35 32.5681 5.35 30C5.35 27.9181 6.71838 26.155 8.60566 25.5626L8.85086 25.4856L8.85084 25.2286L8.85 13.5C8.85 13.5 8.85 13.5 8.85 13.5C8.85001 12.8649 9.36488 12.35 10 12.35C10.6351 12.35 11.15 12.8649 11.15 13.5Z" fill="#B428C2" stroke="#F0BFF5" stroke-width="0.7"/>
</svg>
