<svg width="615" height="384" viewBox="0 0 615 384" fill="none" xmlns="http://www.w3.org/2000/svg">
<path d="M336.507 397.438C473.101 381.68 519.678 296.782 637.474 288.226" stroke="#EEF3FE" stroke-width="18"/>
<path d="M-103.419 60.6278L-105.806 58.068L-100.687 53.294L-98.2999 55.8538L-103.419 60.6278ZM185.681 -55.5944C182.595 -29.1431 168.05 -3.1212 147.029 19.5606C125.983 42.2694 98.2489 61.8515 68.3326 75.4202C8.77863 102.431 -60.9694 106.15 -103.419 60.6278L-98.2999 55.8538C-58.9543 98.047 6.88463 95.604 65.4412 69.0453C94.5803 55.829 121.532 36.7741 141.895 14.8024C162.283 -7.19618 175.869 -31.8982 178.728 -56.4056L185.681 -55.5944Z" fill="#EEF3FE"/>
</svg>
