<svg width="29" height="29" viewBox="0 0 29 29" fill="none" xmlns="http://www.w3.org/2000/svg">
<path d="M8.85059 14.7375L12.1214 18.0083L19.3173 10.8125" stroke="#FC8743" stroke-width="2" stroke-linecap="round" stroke-linejoin="round"/>
<path d="M14.0833 27.1667C15.7008 27.1667 17.0898 26.1883 17.6907 24.7911C17.903 24.2972 18.6047 24.0066 19.1041 24.2056C20.5171 24.7688 22.1909 24.4784 23.3347 23.3347C24.4783 22.1909 24.7686 20.5171 24.2056 19.1042C24.0066 18.6047 24.2972 17.903 24.7911 17.6907C26.1883 17.0898 27.1667 15.7008 27.1667 14.0833C27.1667 12.4658 26.1883 11.077 24.7911 10.476C24.2972 10.2636 24.0066 9.56198 24.2056 9.06255C24.7688 7.64966 24.4784 5.97574 23.3347 4.83203C22.1909 3.68832 20.5171 3.39799 19.1042 3.96103C18.6047 4.16007 17.903 3.86944 17.6907 3.37554C17.0898 1.97835 15.7008 1 14.0833 1C12.4658 1 11.077 1.97833 10.476 3.37553C10.2636 3.86941 9.56198 4.16003 9.06255 3.96101C7.64966 3.39797 5.97574 3.68828 4.83203 4.83199C3.68832 5.9757 3.39799 7.64962 3.96103 9.06251C4.16007 9.56196 3.86944 10.2636 3.37554 10.476C1.97835 11.077 1 12.4658 1 14.0833C1 15.7008 1.97833 17.0898 3.37553 17.6907C3.86941 17.903 4.16003 18.6047 3.96101 19.1041C3.39797 20.5171 3.68828 22.1909 4.83199 23.3347C5.9757 24.4783 7.64962 24.7686 9.06251 24.2056C9.56194 24.0066 10.2636 24.2972 10.476 24.7911C11.077 26.1883 12.4658 27.1667 14.0833 27.1667Z" stroke="#FC8743" stroke-width="2" stroke-linecap="round" stroke-linejoin="round"/>
</svg>
