<svg width="29" height="30" viewBox="0 0 29 30" fill="none" xmlns="http://www.w3.org/2000/svg">
<path d="M13.8371 0.00244326C11.4308 0.0349433 6.25332 0.429944 3.35707 3.08369C1.20707 5.22119 0.455816 8.37244 0.368316 12.2749C0.293316 16.1624 0.205816 23.4624 7.24332 25.4512V28.4762C7.24332 28.4762 7.19582 29.6887 7.99582 29.9387C8.98332 30.2512 9.54582 29.3149 10.4833 28.3149L12.2333 26.3399C17.0458 26.7399 20.7333 25.8162 21.1583 25.6787C22.1333 25.3662 27.6346 24.6649 28.5346 17.3637C29.4596 9.82494 28.0846 5.07494 25.6096 2.92494L25.5971 2.92244C24.8471 2.23494 21.8471 0.0474433 15.1346 0.0224433C15.1346 0.0224433 14.6396 -0.00880674 13.8371 0.00244326ZM13.9208 2.12369C14.6021 2.11994 15.0208 2.14869 15.0208 2.14869C20.6958 2.16119 23.4096 3.87369 24.0471 4.44869C26.1346 6.23494 27.2071 10.5187 26.4221 16.8137C25.6721 22.9137 21.2096 23.3012 20.3846 23.5637C20.0346 23.6762 16.7846 24.4762 12.6946 24.2137C12.6946 24.2137 9.64582 27.8899 8.69582 28.8399C8.54582 29.0024 8.37082 29.0524 8.25832 29.0274C8.09582 28.9899 8.04582 28.7899 8.05832 28.5149L8.08332 23.4912C2.11957 21.8412 2.46957 15.6137 2.53207 12.3637C2.60707 9.11369 3.21957 6.44869 5.03207 4.64869C7.47832 2.43619 11.8758 2.13619 13.9196 2.12369H13.9208ZM14.3708 5.37369C14.3216 5.37353 14.2729 5.38307 14.2274 5.40178C14.1819 5.42049 14.1406 5.448 14.1057 5.48272C14.0709 5.51744 14.0432 5.5587 14.0244 5.60413C14.0055 5.64955 13.9958 5.69826 13.9958 5.74744C13.9958 5.8469 14.0353 5.94228 14.1057 6.01261C14.176 6.08293 14.2714 6.12244 14.3708 6.12244C15.3001 6.10471 16.2237 6.27122 17.0884 6.61234C17.953 6.95347 18.7415 7.46246 19.4083 8.10994C20.7708 9.43494 21.4346 11.2099 21.4596 13.5349C21.4596 13.5842 21.4693 13.633 21.4881 13.6784C21.507 13.7239 21.5346 13.7653 21.5694 13.8001C21.6042 13.8349 21.6456 13.8626 21.6911 13.8814C21.7366 13.9002 21.7853 13.9099 21.8346 13.9099V13.8987C21.934 13.8987 22.0294 13.8592 22.0997 13.7889C22.1701 13.7185 22.2096 13.6231 22.2096 13.5237C22.2559 12.4303 22.0793 11.3389 21.6903 10.316C21.3013 9.29307 20.7082 8.36003 19.9471 7.57369C18.4596 6.12369 16.5821 5.37369 14.3696 5.37369H14.3708ZM9.42832 6.23619C9.16249 6.19831 8.89165 6.25116 8.65957 6.38619H8.64457C8.13207 6.68619 7.65957 7.06119 7.20957 7.56119C6.87207 7.96119 6.68332 8.35994 6.63332 8.74744C6.6039 8.97471 6.62525 9.20567 6.69582 9.42369L6.72082 9.43619C7.1061 10.5689 7.60884 11.6581 8.22082 12.6862C9.01408 14.126 9.9887 15.4581 11.1208 16.6499L11.1583 16.6999L11.2083 16.7374L11.2458 16.7749L11.2833 16.8124C12.4798 17.9474 13.8155 18.9261 15.2583 19.7249C16.9083 20.6249 17.9108 21.0499 18.5108 21.2249V21.2374C18.6858 21.2874 18.8458 21.3124 19.0083 21.3124C19.5205 21.2751 20.0054 21.0674 20.3858 20.7224C20.8733 20.2849 21.2608 19.7999 21.5483 19.2874V19.2749C21.8358 18.7374 21.7358 18.2237 21.3233 17.8737C20.492 17.1464 19.5919 16.5017 18.6358 15.9487C17.9983 15.5987 17.3483 15.8112 17.0858 16.1612L16.5233 16.8724C16.2358 17.2224 15.7108 17.1724 15.7108 17.1724L15.6958 17.1849C11.7958 16.1849 10.7583 12.2362 10.7583 12.2362C10.7583 12.2362 10.7083 11.6987 11.0708 11.4237L11.7708 10.8612C12.1083 10.5862 12.3458 9.93619 11.9833 9.29869C11.431 8.34211 10.7863 7.44198 10.0583 6.61119C9.89997 6.41481 9.67643 6.28175 9.42832 6.23619ZM15.0196 7.34869C14.9201 7.34903 14.8249 7.38885 14.7548 7.45941C14.6847 7.52997 14.6455 7.62549 14.6458 7.72494C14.6461 7.8244 14.686 7.91965 14.7565 7.98974C14.8271 8.05983 14.9226 8.09902 15.0221 8.09869C16.273 8.12041 17.4643 8.63737 18.3346 9.53619C18.7272 9.96934 19.0291 10.4768 19.2223 11.0285C19.4155 11.5803 19.4962 12.1652 19.4596 12.7487C19.4599 12.8479 19.4996 12.943 19.5698 13.0131C19.6401 13.0831 19.7353 13.1224 19.8346 13.1224L19.8471 13.1374C19.8964 13.1374 19.9453 13.1277 19.9909 13.1088C20.0364 13.0899 20.0778 13.0621 20.1127 13.0272C20.1475 12.9922 20.1751 12.9507 20.1939 12.9051C20.2127 12.8594 20.2222 12.8105 20.2221 12.7612C20.2596 11.2737 19.7971 10.0237 18.8846 9.02369C17.9721 8.02369 16.6971 7.46119 15.0721 7.34869C15.0546 7.34747 15.037 7.34747 15.0196 7.34869ZM15.6321 9.37244C15.5819 9.37097 15.532 9.37938 15.4851 9.39721C15.4382 9.41503 15.3953 9.44192 15.3587 9.47634C15.3222 9.51075 15.2929 9.55202 15.2723 9.59779C15.2518 9.64355 15.2404 9.69292 15.2389 9.74307C15.2375 9.79322 15.2459 9.84317 15.2637 9.89006C15.2815 9.93696 15.3084 9.97988 15.3428 10.0164C15.3773 10.0529 15.4185 10.0823 15.4643 10.1028C15.5101 10.1234 15.5594 10.1347 15.6096 10.1362C16.8471 10.1987 17.4471 10.8237 17.5221 12.1112C17.5253 12.2085 17.5662 12.3007 17.6362 12.3683C17.7062 12.436 17.7997 12.4737 17.8971 12.4737H17.9096C17.9599 12.4721 18.0095 12.4604 18.0552 12.4393C18.1009 12.4182 18.1419 12.388 18.1758 12.3507C18.2096 12.3134 18.2356 12.2696 18.2521 12.222C18.2687 12.1744 18.2754 12.124 18.2721 12.0737C18.1846 10.3987 17.2721 9.45994 15.6471 9.37244C15.6421 9.37234 15.6371 9.37234 15.6321 9.37244Z" fill="#8039B6"/>
</svg>
