<svg width="39" height="39" viewBox="0 0 39 39" fill="none" xmlns="http://www.w3.org/2000/svg">
<path d="M17.632 7.04782L17.6154 6.81563L17.2209 1.29326C17.1789 0.705402 16.6898 0.25 16.1006 0.25H7.03734C6.41707 0.25 5.91406 0.753011 5.91406 1.37327C5.91406 1.99354 6.41707 2.49655 7.03734 2.49655H14.822H15.0548L15.0713 2.72874L15.3606 6.78001L15.3797 7.04782H15.1113H9.30314C8.97534 7.04782 8.66411 7.19085 8.45069 7.43946C8.23736 7.68823 8.14326 8.0178 8.19299 8.34167L12.7246 37.7975C12.809 38.3455 13.2804 38.7499 13.8349 38.7499H27.4299C27.9842 38.7499 28.4557 38.3454 28.54 37.7975L33.0716 8.34167C33.0716 8.34165 33.0716 8.34163 33.0716 8.3416C33.1214 8.0178 33.0273 7.68829 32.814 7.43954L17.632 7.04782ZM17.632 7.04782H17.8648M17.632 7.04782H17.8648M17.8648 7.04782H31.9614C32.2892 7.04782 32.6005 7.19087 32.8139 7.43946L17.8648 7.04782ZM30.6079 9.58225L30.6522 9.29423H30.3608H18.0609H17.7924L17.8116 9.56205L18.5865 20.4106L18.603 20.6428H18.8358H28.6918H28.9063L28.9389 20.4308L30.6079 9.58225ZM15.5568 9.52642L15.5402 9.29423H15.3074H10.9037H10.6123L10.6566 9.58225L12.3256 20.4308L12.3582 20.6428H12.5727H16.0823H16.3508L16.3317 20.375L15.5568 9.52642ZM26.2517 36.5036H26.4662L26.4988 36.2916L28.5166 23.1772L28.5609 22.8892H28.2695H19.0321H18.7636L18.7828 23.157L19.487 33.0151C19.5311 33.6339 19.0654 34.1713 18.4467 34.2155C18.419 34.2174 18.3918 34.2184 18.3651 34.2184C17.7813 34.2184 17.2883 33.7665 17.2461 33.1751L16.528 23.1214L16.5114 22.8892H16.2786H12.9953H12.7039L12.7482 23.1772L14.7658 36.2916L14.7984 36.5036H15.0129H26.2517Z" fill="#839700" stroke="#EAF985" stroke-width="0.5"/>
</svg>
