<svg width="16" height="17" viewBox="0 0 16 17" fill="none" xmlns="http://www.w3.org/2000/svg">
<path fill-rule="evenodd" clip-rule="evenodd" d="M13.6687 2.43583C12.9307 1.69649 12.0527 1.11026 11.0854 0.711082C10.1181 0.311906 9.08084 0.107728 8.03371 0.110377C3.64281 0.110377 0.0683305 3.66701 0.0665556 8.03883C0.0665556 9.43604 0.433055 10.7997 1.12967 12.0026L0 16.1104L4.22317 15.0072C5.39135 15.6401 6.70011 15.972 8.03016 15.9726H8.03371C12.4237 15.9726 15.9982 12.4159 16 8.04412C16.003 7.00238 15.7985 5.97037 15.3984 5.00775C14.9982 4.04513 14.4104 3.17098 13.6687 2.43583M8.03371 14.6345H8.03104C6.84504 14.6347 5.68086 14.3171 4.66067 13.7151L4.41929 13.572L1.91325 14.2265L2.58147 11.7951L2.4244 11.546C1.76132 10.4954 1.4103 9.27952 1.41187 8.03883C1.41364 4.40536 4.3838 1.4493 8.03637 1.4493C8.90625 1.44738 9.76788 1.61718 10.5714 1.94888C11.3749 2.28058 12.1043 2.7676 12.7174 3.38173C13.3339 3.99294 13.8224 4.71968 14.1549 5.51995C14.4875 6.32022 14.6573 7.17814 14.6547 8.04412C14.6529 11.6776 11.6827 14.6345 8.03371 14.6345ZM11.6659 9.69835C11.4662 9.59855 10.4883 9.11986 10.3055 9.05362C10.1236 8.98738 9.99133 8.9547 9.85822 9.15254C9.72511 9.35037 9.34352 9.79639 9.22727 9.92886C9.11102 10.0613 8.99477 10.0772 8.79599 9.97832C8.59721 9.87941 7.95561 9.67009 7.1951 8.99533C6.6032 8.46983 6.20387 7.82156 6.08762 7.62284C5.97137 7.42412 6.0752 7.31726 6.17547 7.21834C6.2651 7.13002 6.37425 6.98694 6.47364 6.87124C6.57303 6.75554 6.60587 6.67341 6.67242 6.54093C6.73898 6.40845 6.70614 6.29275 6.65556 6.19383C6.60587 6.09403 6.20742 5.11898 6.04147 4.72243C5.88085 4.33824 5.71668 4.38946 5.59422 4.38416C5.46739 4.379 5.34046 4.37664 5.21352 4.3771C5.11258 4.37966 5.01327 4.40294 4.9218 4.4455C4.83033 4.48805 4.74868 4.54896 4.68197 4.62439C4.49916 4.82311 3.98535 5.3018 3.98535 6.27685C3.98535 7.2519 4.69883 8.19427 4.79822 8.32675C4.8976 8.45923 6.2021 10.4597 8.19876 11.3181C8.67441 11.5221 9.04535 11.644 9.33376 11.7359C9.8103 11.8869 10.2442 11.8648 10.5877 11.8145C10.9701 11.758 11.7653 11.3358 11.9312 10.873C12.0971 10.4102 12.0971 10.0137 12.0475 9.93063C11.9978 9.84761 11.8638 9.79727 11.6659 9.69835" fill="#284C71"/>
</svg>
